<svg id="svg" version="1.1" width="400" height="250.66666666666666" xmlns="http://www.w3.org/2000/svg" xmlns:xlink="http://www.w3.org/1999/xlink" style="display: block;"><g id="svgg"><path id="path0" d="" stroke="none" fill="#000000" fill-rule="evenodd"></path><path id="path1" d="M183.197 57.179 C 183.112 57.317,183.212 57.429,183.419 57.429 C 183.626 57.429,183.865 57.317,183.950 57.179 C 184.035 57.041,183.936 56.928,183.729 56.928 C 183.522 56.928,183.283 57.041,183.197 57.179 " stroke="none" fill="#555555" fill-rule="evenodd"></path><path id="path2" d="M188.715 49.573 C 188.163 49.613,186.978 49.757,186.082 49.893 C 185.185 50.030,183.718 50.208,182.821 50.289 C 177.121 50.808,169.259 52.654,167.524 53.880 C 167.179 54.124,166.107 54.586,165.141 54.906 C 163.423 55.477,160.422 56.926,155.823 59.407 C 144.910 65.293,133.281 76.555,127.147 87.181 C 126.527 88.257,125.747 89.592,125.414 90.148 C 125.082 90.705,124.259 92.401,123.586 93.918 C 122.913 95.436,122.097 97.241,121.774 97.931 C 120.601 100.429,118.894 106.038,117.996 110.345 C 117.809 111.241,117.590 112.257,117.508 112.602 C 116.082 118.623,115.752 128.999,116.751 136.363 L 116.896 137.429 118.824 137.392 C 119.885 137.372,120.997 137.433,121.296 137.528 C 122.051 137.768,122.215 137.352,121.649 136.633 C 121.387 136.300,120.751 135.308,120.236 134.429 L 119.299 132.830 119.468 128.798 C 119.772 121.567,121.341 116.012,121.734 120.775 C 122.175 126.108,125.115 138.706,126.086 139.422 C 127.019 140.110,129.446 146.067,128.872 146.259 C 128.753 146.299,129.063 147.122,129.561 148.088 C 130.060 149.053,130.666 150.232,130.909 150.706 L 131.351 151.569 130.123 153.171 C 128.224 155.649,127.153 158.462,127.143 160.998 L 127.138 162.132 126.365 160.901 C 125.689 159.824,123.598 154.897,122.970 152.899 C 122.717 152.096,121.142 151.068,120.526 151.304 C 120.067 151.480,120.467 152.761,122.064 156.238 C 122.539 157.273,123.192 158.740,123.514 159.498 C 124.233 161.189,125.580 163.777,126.503 165.239 C 126.882 165.839,127.617 167.137,128.136 168.123 C 128.977 169.720,132.043 173.799,134.313 176.343 C 135.266 177.411,135.423 177.248,135.423 175.195 C 135.423 173.966,135.344 173.795,134.232 172.634 C 132.888 171.230,130.124 167.451,129.314 165.910 C 127.984 163.382,128.712 158.694,130.953 155.342 C 132.420 153.149,132.267 153.212,132.942 154.535 C 134.180 156.962,135.136 158.099,135.321 157.365 C 135.599 156.257,135.228 154.588,134.421 153.316 L 133.655 152.107 134.539 151.273 C 136.286 149.624,135.617 147.834,133.807 149.317 L 132.714 150.212 131.847 148.398 C 130.797 146.200,130.685 146.314,132.842 147.385 C 134.776 148.344,135.423 148.338,135.423 147.360 C 135.423 146.636,134.950 146.275,131.787 144.588 C 129.078 143.143,129.537 143.836,127.555 138.198 C 125.043 131.054,124.115 126.944,123.360 119.637 L 123.064 116.767 124.797 115.123 C 127.975 112.108,131.445 109.654,135.344 107.661 L 137.146 106.740 138.604 107.519 C 139.406 107.947,140.637 108.610,141.340 108.993 L 142.617 109.688 141.752 112.085 C 141.276 113.404,140.601 115.498,140.252 116.740 C 139.903 117.981,139.396 119.787,139.125 120.752 C 137.409 126.861,137.145 129.068,138.217 128.357 C 139.066 127.793,139.566 126.522,140.563 122.382 C 141.079 120.245,141.902 117.254,142.392 115.737 L 143.284 112.978 143.626 115.235 C 144.507 121.047,144.978 123.462,145.327 123.960 C 145.638 124.404,145.715 125.703,145.760 131.278 L 145.814 138.056 145.948 133.166 C 146.038 129.853,146.143 128.599,146.274 129.279 C 146.452 130.211,146.946 131.900,148.328 136.301 C 148.846 137.952,148.926 138.061,149.674 138.135 C 150.645 138.231,150.686 137.919,149.984 135.778 C 149.716 134.962,149.390 133.843,149.258 133.292 C 148.541 130.274,147.664 126.959,147.467 126.520 C 146.983 125.437,145.892 119.261,145.117 113.210 L 144.793 110.684 147.694 111.646 C 149.290 112.175,150.821 112.711,151.097 112.838 C 153.032 113.725,160.461 115.397,166.395 116.280 C 168.878 116.650,170.984 117.018,171.075 117.097 C 171.166 117.176,171.034 118.878,170.782 120.878 C 170.208 125.429,170.156 125.935,169.630 131.912 C 169.121 137.697,169.463 136.843,167.517 137.178 C 166.624 137.331,165.724 137.499,165.517 137.549 C 165.310 137.600,165.085 137.652,165.016 137.665 C 164.246 137.806,166.094 138.175,167.586 138.178 L 169.530 138.182 169.592 154.796 C 169.627 163.934,169.623 172.991,169.583 174.922 C 169.533 177.369,169.589 178.319,169.768 178.056 C 169.988 177.732,170.029 177.741,170.059 178.119 C 170.100 178.630,170.143 178.800,170.360 179.310 C 170.511 179.664,171.787 185.819,171.787 186.193 C 171.787 186.288,171.307 186.330,170.721 186.287 C 168.797 186.143,169.012 187.403,171.014 187.997 C 172.257 188.366,172.571 188.571,172.771 189.145 C 173.067 189.994,173.071 189.994,171.536 189.216 C 169.883 188.378,169.530 188.403,169.530 189.356 C 169.530 189.804,169.634 190.059,169.781 189.969 C 169.918 189.883,170.031 189.995,170.031 190.217 C 170.031 190.450,170.429 190.779,170.972 190.995 C 173.723 192.087,173.757 192.113,174.181 193.388 C 174.403 194.059,174.697 194.608,174.833 194.608 C 175.311 194.608,176.050 194.085,176.050 193.746 C 176.050 193.558,176.380 193.288,176.783 193.148 C 178.289 192.623,178.216 191.970,176.582 191.359 C 175.301 190.880,175.087 190.702,174.844 189.911 C 174.461 188.663,174.475 188.657,177.099 188.989 C 178.522 189.168,179.547 189.194,179.721 189.054 C 180.174 188.690,180.284 187.593,179.905 187.214 C 179.716 187.025,179.561 186.738,179.561 186.578 C 179.561 186.418,178.404 185.139,176.991 183.736 C 173.065 179.841,172.116 178.634,171.913 177.278 L 171.741 176.123 172.962 175.723 C 173.634 175.504,175.472 175.092,177.046 174.808 C 179.711 174.329,180.300 174.075,180.310 173.404 C 180.323 172.503,179.931 172.515,174.476 173.584 C 172.989 173.875,171.721 174.062,171.658 173.999 C 171.266 173.607,170.065 157.440,170.399 157.050 C 170.430 157.014,172.363 157.154,174.695 157.361 C 180.147 157.844,179.995 157.849,180.202 157.198 C 180.487 156.299,179.834 156.100,175.503 155.768 C 173.252 155.596,171.140 155.389,170.809 155.308 L 170.207 155.162 170.399 148.114 C 170.504 144.237,170.662 140.502,170.749 139.812 L 170.909 138.558 172.288 138.374 C 173.047 138.272,173.950 138.137,174.295 138.072 C 178.194 137.342,181.004 137.250,181.433 137.836 C 181.787 138.319,182.821 138.097,182.821 137.538 C 182.821 137.270,183.189 137.173,184.263 137.158 C 185.056 137.146,185.987 137.096,186.332 137.046 C 187.565 136.867,199.083 136.876,203.699 137.059 L 208.401 137.245 208.401 137.839 C 208.401 138.604,209.270 138.650,209.668 137.906 C 210.224 136.868,220.151 137.628,220.648 138.746 C 220.922 139.364,222.194 138.907,222.194 138.191 C 222.194 137.220,221.853 137.070,218.787 136.692 L 216.258 136.380 216.463 135.087 C 216.876 132.489,217.496 127.401,218.024 122.282 C 218.559 117.103,218.572 117.038,219.173 116.947 C 220.221 116.787,220.069 116.614,218.880 116.614 C 217.908 116.614,217.716 116.530,217.588 116.050 C 217.291 114.943,217.400 114.608,218.056 114.608 C 218.479 114.608,218.690 114.465,218.703 114.169 C 218.713 113.928,218.779 113.505,218.850 113.229 C 219.199 111.859,219.429 108.953,219.590 103.876 L 219.767 98.285 220.417 98.405 C 220.774 98.472,221.630 98.594,222.320 98.677 C 224.610 98.954,230.840 100.078,231.223 100.284 C 231.429 100.396,232.166 100.622,232.860 100.788 C 234.308 101.134,235.043 102.314,237.356 108.010 C 238.634 111.158,238.618 111.097,238.165 111.097 C 237.984 111.097,236.601 111.500,235.093 111.992 C 233.585 112.484,230.836 113.201,228.985 113.586 C 225.161 114.380,225.387 114.665,229.797 114.606 C 231.064 114.590,232.246 114.583,232.423 114.592 C 232.684 114.605,232.738 119.530,232.703 140.447 C 232.680 154.659,232.726 166.352,232.806 166.432 C 232.886 166.512,233.399 165.860,233.946 164.982 C 234.492 164.104,235.331 162.765,235.810 162.006 C 236.852 160.353,239.749 154.658,239.749 154.262 C 239.749 154.107,239.848 153.981,239.970 153.981 C 240.091 153.981,240.335 153.631,240.513 153.202 C 240.737 152.661,241.165 152.282,241.914 151.961 C 243.355 151.343,243.879 149.408,242.486 149.850 C 242.068 149.983,242.036 149.927,242.241 149.421 C 242.370 149.102,242.804 148.003,243.205 146.980 C 243.696 145.727,244.080 145.098,244.382 145.054 C 245.222 144.930,245.913 143.448,245.131 143.448 C 244.828 143.448,244.763 143.326,244.896 143.009 C 244.997 142.768,245.135 142.317,245.203 142.006 C 245.368 141.244,245.768 141.289,245.768 142.069 C 245.768 142.884,246.383 142.888,246.915 142.076 C 247.251 141.564,247.291 141.056,247.148 139.130 C 246.988 136.964,247.031 136.619,247.777 134.169 C 250.367 125.662,252.232 114.774,252.281 107.878 L 252.288 106.790 254.984 108.228 C 260.854 111.361,263.867 113.572,264.356 115.110 C 264.510 115.592,264.783 116.326,264.962 116.740 C 266.391 120.034,266.209 122.985,264.062 131.285 C 262.246 138.305,262.266 138.016,263.617 137.757 C 264.202 137.645,264.336 137.426,264.707 135.962 C 264.939 135.045,265.226 134.069,265.344 133.793 C 265.792 132.748,266.818 128.235,266.855 127.147 C 266.914 125.430,267.331 128.274,267.478 131.397 L 267.638 134.796 266.244 136.468 C 265.064 137.884,264.907 138.186,265.216 138.443 C 265.759 138.893,266.873 138.810,267.253 138.291 C 267.557 137.875,267.586 137.901,267.586 138.592 C 267.586 139.072,267.812 139.561,268.207 139.931 C 268.962 140.641,268.999 140.560,269.189 137.720 C 269.316 135.828,269.983 133.918,270.516 133.918 C 270.641 133.918,270.394 137.017,270.186 138.056 C 269.754 140.216,269.794 141.323,270.322 141.800 C 271.088 142.490,271.243 142.179,271.690 139.060 C 273.258 128.108,272.178 110.542,269.608 105.204 C 269.475 104.928,269.148 103.969,268.881 103.072 C 267.346 97.926,264.016 90.678,261.257 86.479 C 258.126 81.715,257.491 80.797,256.167 79.122 C 254.608 77.151,250.855 73.035,249.550 71.865 C 249.079 71.443,248.458 70.830,248.171 70.503 C 247.688 69.953,246.157 68.623,243.514 66.458 C 241.383 64.712,237.312 61.940,234.734 60.479 C 233.285 59.659,231.423 58.596,230.596 58.118 C 229.768 57.639,227.680 56.658,225.956 55.937 C 224.232 55.216,222.313 54.371,221.693 54.058 C 218.668 52.534,211.461 50.859,205.392 50.269 C 204.495 50.181,203.423 50.052,203.009 49.981 C 200.371 49.526,192.460 49.301,188.715 49.573 M199.609 51.392 C 200.107 51.407,199.942 51.578,198.731 52.303 C 197.912 52.794,196.825 53.527,196.316 53.933 C 194.935 55.034,194.450 54.915,192.801 53.071 C 191.019 51.077,190.953 51.125,195.346 51.260 C 197.354 51.322,199.272 51.381,199.609 51.392 M183.676 52.539 C 183.363 53.016,183.109 53.137,182.608 53.046 C 182.246 52.981,181.298 52.907,180.501 52.884 C 178.661 52.828,178.834 52.662,181.128 52.279 C 184.087 51.785,184.165 51.793,183.676 52.539 M189.216 52.540 C 189.630 52.714,190.403 53.309,190.933 53.862 L 191.898 54.867 190.432 54.512 C 189.625 54.316,188.205 53.978,187.274 53.760 C 185.480 53.339,185.404 53.167,186.672 52.396 C 187.466 51.914,187.771 51.931,189.216 52.540 M208.002 52.929 L 209.233 53.542 205.870 53.708 C 204.021 53.799,201.781 53.994,200.892 54.140 C 198.860 54.477,198.815 54.417,200.438 53.532 C 203.387 51.923,205.625 51.745,208.002 52.929 M214.044 53.707 C 214.367 53.848,214.100 53.873,213.292 53.776 C 212.602 53.694,211.925 53.514,211.787 53.377 C 211.502 53.094,213.212 53.344,214.044 53.707 M181.961 54.755 C 182.422 54.792,182.450 54.875,182.216 55.496 C 181.922 56.275,182.051 56.234,178.056 56.803 C 174.768 57.272,172.919 57.675,166.834 59.250 C 164.455 59.866,162.508 60.330,162.508 60.282 C 162.508 59.024,168.268 55.665,171.311 55.149 C 172.883 54.883,174.278 54.630,174.411 54.587 C 174.628 54.518,180.673 54.652,181.961 54.755 M185.893 55.333 C 187.257 55.559,187.046 55.830,185.458 55.895 C 184.304 55.941,184.105 55.887,184.230 55.561 C 184.396 55.129,184.539 55.110,185.893 55.333 M211.256 56.041 C 211.743 56.784,211.763 56.948,211.348 56.801 C 210.964 56.664,204.694 55.940,203.424 55.885 C 201.622 55.808,204.862 55.504,207.934 55.463 C 210.778 55.424,210.862 55.439,211.256 56.041 M219.185 56.467 C 224.452 57.556,226.103 58.301,227.712 60.313 C 228.058 60.746,228.048 60.768,227.586 60.589 C 226.909 60.327,218.826 58.245,216.199 57.656 C 215.039 57.396,214.080 57.154,214.067 57.118 C 214.054 57.083,213.903 56.801,213.730 56.492 C 213.558 56.184,213.417 55.865,213.417 55.783 C 213.417 55.551,216.557 55.923,219.185 56.467 M188.701 56.949 C 188.621 57.080,188.469 57.134,188.364 57.069 C 188.139 56.930,186.297 57.422,184.250 58.167 C 182.805 58.693,182.316 58.677,182.324 58.104 C 182.334 57.288,182.839 57.089,185.621 56.805 C 188.520 56.509,188.961 56.530,188.701 56.949 M204.138 59.534 C 211.272 62.024,214.922 63.650,214.922 64.340 C 214.922 64.608,214.666 64.661,213.856 64.563 C 213.270 64.491,211.407 64.337,209.716 64.219 C 206.456 63.993,206.242 63.910,204.281 62.115 C 203.494 61.393,203.367 61.300,200.878 59.611 C 197.270 57.164,197.221 57.099,199.624 57.949 C 200.796 58.364,202.828 59.077,204.138 59.534 M207.273 57.931 C 212.256 58.616,213.668 59.267,213.668 60.882 C 213.668 61.097,205.532 58.154,205.194 57.817 C 205.014 57.637,205.202 57.647,207.273 57.931 M187.950 58.156 C 187.579 58.507,182.707 61.158,182.609 61.062 C 182.400 60.855,182.892 59.436,183.172 59.436 C 183.343 59.436,184.491 59.105,185.722 58.700 C 188.318 57.848,188.261 57.862,187.950 58.156 M176.928 59.551 C 171.932 61.228,171.192 61.503,169.228 62.416 C 168.360 62.819,166.803 63.513,165.768 63.958 C 163.985 64.725,162.663 65.385,159.060 67.306 C 157.292 68.249,157.184 68.148,157.873 66.193 C 158.427 64.623,159.356 63.533,160.436 63.185 C 160.955 63.018,161.495 62.791,161.636 62.680 C 162.271 62.181,171.319 59.885,175.799 59.085 C 178.608 58.584,179.102 58.474,179.261 58.315 C 179.334 58.242,179.742 58.187,180.167 58.193 C 180.651 58.200,179.441 58.708,176.928 59.551 M191.567 58.669 C 191.377 58.937,190.489 60.233,189.592 61.550 C 187.762 64.239,188.070 64.085,184.075 64.305 C 181.416 64.452,181.437 64.553,183.778 62.859 C 184.577 62.281,191.478 58.285,191.817 58.204 C 191.869 58.192,191.756 58.401,191.567 58.669 M195.270 61.005 C 195.704 62.418,196.042 63.590,196.023 63.609 C 196.003 63.628,194.715 63.715,193.160 63.802 L 190.333 63.959 191.006 62.889 C 191.377 62.300,192.141 61.211,192.705 60.469 C 193.269 59.727,193.843 58.965,193.980 58.776 C 194.386 58.217,194.448 58.323,195.270 61.005 M200.186 61.479 C 201.326 62.258,202.474 63.134,202.738 63.425 L 203.218 63.955 200.731 63.817 C 197.872 63.657,197.800 63.610,197.283 61.567 C 197.074 60.740,196.817 59.843,196.713 59.574 C 196.484 58.987,196.759 59.137,200.186 61.479 M159.180 60.713 C 158.050 61.873,157.201 62.496,156.364 62.776 C 155.802 62.964,157.558 61.279,159.100 60.150 C 160.438 59.170,160.470 59.389,159.180 60.713 M220.188 60.478 C 226.309 61.953,230.115 63.327,230.986 64.375 C 231.731 65.273,232.572 67.962,232.108 67.962 C 228.216 67.962,216.466 63.141,215.985 61.346 C 215.833 60.778,215.627 60.103,215.528 59.846 C 215.317 59.299,215.273 59.293,220.188 60.478 M180.451 61.556 C 180.160 63.015,178.054 64.953,176.761 64.953 C 175.664 64.953,169.031 66.017,166.427 66.611 C 162.202 67.574,162.507 67.333,168.903 64.660 C 170.558 63.968,172.702 63.056,173.668 62.634 C 174.633 62.212,176.608 61.495,178.056 61.042 C 179.505 60.588,180.697 60.211,180.707 60.203 C 180.717 60.195,180.601 60.804,180.451 61.556 M233.638 62.588 L 234.357 63.173 233.429 62.896 C 232.918 62.744,232.128 62.225,231.673 61.743 L 230.846 60.867 231.882 61.434 C 232.452 61.747,233.242 62.266,233.638 62.588 M152.234 64.185 C 152.091 64.452,151.269 65.027,150.407 65.464 C 148.570 66.394,148.639 66.272,150.778 64.806 C 152.626 63.540,152.565 63.566,152.234 64.185 M156.076 66.011 C 155.889 66.730,155.737 67.732,155.737 68.237 L 155.737 69.155 154.044 69.579 C 153.113 69.813,151.871 70.215,151.285 70.473 C 150.058 71.015,150.053 71.009,150.722 69.771 C 152.291 66.867,153.976 65.362,156.390 64.709 C 156.404 64.705,156.263 65.291,156.076 66.011 M236.614 66.369 C 239.187 67.686,239.881 68.221,241.166 69.880 C 242.855 72.061,242.825 72.068,239.122 70.348 C 238.433 70.028,237.006 69.501,235.952 69.178 L 234.036 68.589 233.882 67.335 C 233.798 66.646,233.660 65.828,233.575 65.518 C 233.399 64.872,234.041 65.051,236.614 66.369 M196.875 66.510 C 197.033 67.102,197.310 67.925,197.492 68.339 C 197.819 69.081,199.183 74.557,200.095 78.789 L 200.564 80.963 198.902 81.057 C 194.684 81.294,182.797 80.812,182.372 80.386 C 182.252 80.267,185.032 73.234,185.465 72.561 C 185.657 72.262,186.575 70.552,187.504 68.759 L 189.195 65.501 192.892 65.468 L 196.590 65.434 196.875 66.510 M207.770 67.398 C 214.239 73.209,217.212 76.438,217.130 77.564 C 217.055 78.591,217.022 78.627,215.925 78.886 C 215.304 79.033,214.627 79.228,214.420 79.319 C 212.707 80.075,202.382 81.011,202.382 80.411 C 202.382 80.181,202.281 79.797,202.157 79.558 C 202.032 79.318,201.676 77.937,201.364 76.489 C 200.806 73.895,198.951 66.455,198.697 65.794 C 198.592 65.519,199.232 65.455,202.087 65.455 L 205.607 65.455 207.770 67.398 M186.653 66.135 C 186.562 66.372,185.957 67.529,185.308 68.706 C 184.660 69.883,183.656 71.975,183.078 73.354 C 182.500 74.734,181.879 76.201,181.699 76.614 C 181.520 77.028,181.288 77.649,181.185 77.994 C 180.633 79.844,180.265 79.665,180.411 77.618 C 180.490 76.514,180.621 74.370,180.703 72.853 C 180.785 71.335,180.914 69.925,180.991 69.718 C 181.067 69.511,181.256 68.608,181.411 67.712 L 181.693 66.082 183.323 65.937 C 186.581 65.647,186.835 65.662,186.653 66.135 M213.394 66.209 C 214.554 66.344,215.524 66.483,215.550 66.518 C 215.616 66.607,216.354 70.581,216.564 71.975 L 216.734 73.103 216.021 72.476 C 215.628 72.132,214.571 71.112,213.672 70.211 C 212.773 69.309,211.304 67.927,210.408 67.139 L 208.777 65.706 210.031 65.835 C 210.721 65.906,212.234 66.074,213.394 66.209 M179.726 66.395 C 179.662 66.498,179.534 67.599,179.442 68.840 C 179.349 70.082,179.232 71.266,179.181 71.473 C 179.130 71.680,179.019 73.373,178.934 75.235 C 178.716 80.064,178.720 80.049,177.596 79.861 C 176.221 79.632,170.944 78.305,168.576 77.593 L 166.494 76.966 167.534 75.725 C 168.105 75.042,168.647 74.479,168.738 74.475 C 168.829 74.471,169.580 73.835,170.408 73.061 C 173.145 70.501,178.146 66.592,178.942 66.390 C 179.720 66.193,179.850 66.194,179.726 66.395 M220.798 67.346 C 223.770 67.961,230.543 71.910,229.917 72.664 C 228.864 73.933,224.325 76.495,221.809 77.240 C 220.108 77.743,218.830 76.242,218.442 73.285 C 218.284 72.082,217.991 70.151,217.792 68.995 C 217.593 67.839,217.429 66.839,217.429 66.773 C 217.429 66.706,217.740 66.715,218.119 66.793 C 218.498 66.871,219.704 67.120,220.798 67.346 M173.908 67.477 C 173.817 67.624,173.294 68.070,172.745 68.468 C 171.315 69.504,168.180 72.312,166.196 74.334 L 164.493 76.070 163.590 75.639 C 162.166 74.961,159.572 73.022,158.746 72.021 C 157.532 70.548,157.659 70.388,160.564 69.739 C 161.978 69.423,163.473 69.067,163.887 68.948 C 164.636 68.733,165.412 68.592,170.658 67.720 C 174.069 67.153,174.111 67.150,173.908 67.477 M148.402 70.202 C 147.803 71.552,147.486 71.977,146.985 72.103 C 146.216 72.296,141.675 74.203,141.317 74.484 C 141.179 74.592,140.614 74.920,140.063 75.214 L 139.060 75.747 140.063 74.841 C 142.416 72.716,148.016 68.786,149.133 68.476 C 149.156 68.469,148.827 69.246,148.402 70.202 M231.541 69.695 C 231.913 69.832,231.934 69.927,231.667 70.280 C 231.375 70.665,231.263 70.636,230.345 69.933 L 229.342 69.165 230.219 69.349 C 230.702 69.450,231.297 69.606,231.541 69.695 M237.891 71.956 C 245.126 74.830,244.754 74.466,247.058 80.931 C 248.489 84.945,248.671 84.928,244.694 81.154 C 242.733 79.294,240.621 77.409,240.000 76.964 C 239.379 76.520,238.307 75.686,237.618 75.112 C 236.928 74.537,235.658 73.580,234.796 72.985 C 233.934 72.389,233.230 71.834,233.232 71.750 C 233.268 70.170,233.414 70.177,237.891 71.956 M246.749 72.784 C 250.397 75.546,251.044 76.419,248.155 74.681 C 246.942 73.951,245.768 73.093,245.546 72.774 C 245.323 72.455,244.859 71.836,244.514 71.398 L 243.887 70.602 244.536 71.100 C 244.892 71.375,245.888 72.132,246.749 72.784 M158.479 74.487 C 159.256 75.247,160.537 76.206,161.325 76.618 C 162.113 77.030,162.758 77.442,162.758 77.533 C 162.759 77.737,160.289 80.735,159.693 81.254 C 157.920 82.796,150.886 93.078,148.356 97.826 C 146.676 100.979,146.674 100.981,145.438 101.377 L 144.201 101.772 144.201 99.212 C 144.201 93.550,145.088 86.034,146.362 80.908 C 146.709 79.512,147.055 78.113,147.132 77.798 C 147.209 77.484,147.512 77.100,147.805 76.946 C 148.098 76.792,148.846 76.246,149.467 75.733 C 150.088 75.219,151.837 73.999,153.354 73.021 L 156.113 71.244 156.590 72.174 C 156.852 72.685,157.702 73.726,158.479 74.487 M233.281 74.295 C 238.606 78.000,246.258 84.822,249.002 88.311 C 249.775 89.294,251.408 104.075,250.743 104.075 C 250.680 104.075,249.901 103.787,249.013 103.436 C 247.306 102.760,236.455 99.561,235.869 99.561 C 235.680 99.561,234.879 98.348,234.091 96.865 C 233.302 95.382,232.277 93.633,231.814 92.977 C 231.351 92.322,230.972 91.714,230.972 91.626 C 230.972 91.180,226.057 84.205,223.774 81.412 C 221.672 78.840,221.687 79.122,223.622 78.485 C 226.247 77.621,228.514 76.390,230.260 74.880 C 232.157 73.239,231.850 73.299,233.281 74.295 M146.319 74.796 C 146.033 75.730,145.912 75.868,143.699 77.763 C 139.080 81.719,133.367 87.784,131.260 90.969 C 130.734 91.763,130.053 92.686,129.747 93.018 L 129.191 93.622 129.020 92.711 C 127.962 87.071,132.728 81.190,142.445 76.145 C 146.527 74.026,146.558 74.015,146.319 74.796 M249.979 78.057 C 251.028 78.781,252.231 79.692,252.652 80.082 C 253.073 80.472,254.077 81.375,254.883 82.089 C 259.754 86.398,261.283 90.434,259.808 95.083 C 258.784 98.308,258.987 98.359,256.031 94.133 C 254.597 92.084,253.197 90.169,252.919 89.878 C 251.067 87.934,250.985 87.796,250.538 85.858 C 250.000 83.520,249.105 80.625,248.649 79.749 C 248.470 79.404,248.089 78.518,247.801 77.780 C 247.171 76.159,247.239 76.168,249.979 78.057 M168.408 79.549 C 168.959 79.892,174.006 81.029,177.618 81.623 L 178.558 81.778 178.555 83.460 C 178.552 85.074,178.042 87.129,176.008 93.730 C 175.508 95.352,175.379 95.551,174.809 95.569 C 174.457 95.581,173.944 95.625,173.668 95.666 C 173.392 95.708,171.321 95.977,169.067 96.263 C 161.824 97.182,151.160 99.291,149.637 100.106 C 148.882 100.510,150.735 97.186,154.602 91.199 C 155.604 89.649,160.356 83.353,160.879 82.884 C 161.033 82.746,161.763 81.900,162.502 81.003 C 163.240 80.107,164.112 79.140,164.439 78.855 L 165.033 78.337 166.592 78.863 C 167.449 79.152,168.267 79.461,168.408 79.549 M144.275 82.069 C 143.741 84.698,143.168 88.502,142.681 92.665 C 142.569 93.630,142.469 96.242,142.461 98.468 L 142.445 102.516 141.760 102.688 C 141.382 102.783,140.243 103.244,139.226 103.714 L 137.379 104.568 135.565 103.086 C 133.409 101.323,132.520 100.343,130.977 98.022 L 129.823 96.286 130.421 95.479 C 130.750 95.034,131.556 93.881,132.212 92.915 C 134.169 90.037,144.103 79.248,144.797 79.248 C 144.826 79.248,144.591 80.517,144.275 82.069 M222.125 82.445 C 224.424 85.290,228.786 91.460,229.527 92.915 C 229.808 93.467,230.344 94.370,230.718 94.922 C 232.054 96.889,233.061 98.894,232.630 98.729 C 232.250 98.583,225.535 97.411,221.505 96.788 L 219.687 96.506 219.685 90.322 C 219.684 86.921,219.611 83.207,219.522 82.069 C 219.306 79.293,219.614 79.338,222.125 82.445 M217.528 81.191 C 217.615 81.571,217.758 85.138,217.847 89.120 L 218.008 96.359 216.653 96.194 C 215.907 96.104,214.564 95.922,213.668 95.791 C 212.151 95.569,206.556 95.055,205.591 95.050 C 205.305 95.048,205.118 94.777,205.026 94.232 C 204.409 90.597,203.091 83.305,202.990 82.969 C 202.883 82.615,203.157 82.527,204.818 82.386 C 207.635 82.145,213.562 81.292,215.172 80.896 C 217.199 80.398,217.352 80.417,217.528 81.191 M195.434 82.633 L 200.900 82.633 201.045 83.260 C 201.126 83.605,201.359 84.508,201.564 85.266 C 201.769 86.025,202.142 87.831,202.392 89.279 C 202.643 90.727,202.969 92.520,203.117 93.263 C 203.265 94.006,203.386 94.683,203.386 94.768 C 203.386 94.852,201.665 94.861,199.562 94.787 C 196.338 94.674,190.610 94.706,181.944 94.885 L 180.188 94.922 180.109 90.710 C 180.026 86.343,180.206 85.163,181.269 83.069 L 181.685 82.251 185.827 82.442 C 188.105 82.547,192.428 82.633,195.434 82.633 M252.593 92.480 C 252.829 92.858,254.032 94.633,255.266 96.426 C 256.584 98.343,257.437 99.815,257.335 99.998 C 257.145 100.337,252.453 104.574,252.364 104.485 C 252.334 104.455,252.290 102.743,252.266 100.679 C 252.224 97.117,251.958 93.324,251.664 92.107 C 251.484 91.358,252.026 91.577,252.593 92.480 M178.558 93.668 C 178.558 95.158,178.513 95.298,178.030 95.298 C 177.630 95.298,177.542 95.191,177.669 94.859 C 177.762 94.618,177.953 93.885,178.093 93.229 C 178.439 91.618,178.558 91.730,178.558 93.668 M126.522 98.182 C 125.791 99.423,125.017 100.777,124.801 101.191 C 123.765 103.178,125.201 97.312,126.476 94.347 L 127.262 92.518 127.556 94.221 L 127.851 95.925 126.522 98.182 M263.338 96.057 C 263.768 97.339,264.156 98.568,264.200 98.787 C 264.443 99.992,264.929 101.751,265.128 102.141 C 265.851 103.559,266.624 113.450,265.993 113.208 C 265.766 113.121,265.580 112.891,265.580 112.697 C 265.580 112.503,265.466 112.148,265.328 111.909 C 265.189 111.669,264.669 110.401,264.173 109.091 C 263.031 106.075,262.026 103.910,260.757 101.727 L 259.756 100.005 260.794 97.822 C 261.387 96.574,261.898 95.071,261.988 94.313 C 262.174 92.740,262.267 92.860,263.338 96.057 M203.615 96.947 C 203.800 97.145,204.167 99.475,204.778 104.326 C 205.074 106.675,205.652 110.823,206.061 113.539 C 206.570 116.911,206.853 116.568,203.367 116.800 C 197.858 117.167,189.294 117.025,182.759 116.458 L 180.815 116.290 180.796 114.132 C 180.785 112.946,180.744 111.806,180.705 111.599 C 180.617 111.137,180.327 102.872,180.278 99.436 L 180.242 96.928 185.105 96.677 C 190.506 96.399,203.277 96.585,203.615 96.947 M212.059 97.436 C 214.416 97.637,216.717 97.876,217.173 97.968 L 218.003 98.134 217.822 102.672 C 217.722 105.168,217.597 107.549,217.543 107.962 C 217.489 108.376,217.369 110.252,217.275 112.131 L 217.104 115.548 212.757 116.002 C 210.366 116.251,208.354 116.400,208.286 116.332 C 208.218 116.264,207.879 113.788,207.533 110.831 C 207.188 107.873,206.788 104.889,206.645 104.200 C 206.502 103.511,206.218 101.931,206.014 100.690 C 205.809 99.448,205.586 98.093,205.517 97.678 L 205.392 96.924 206.583 96.997 C 207.238 97.037,209.702 97.235,212.059 97.436 M178.598 99.436 C 178.620 100.746,178.659 102.241,178.684 102.759 C 178.709 103.276,178.804 105.674,178.895 108.088 C 178.987 110.502,179.130 113.326,179.214 114.364 L 179.365 116.251 176.361 115.894 C 173.845 115.596,173.372 115.473,173.445 115.136 C 173.493 114.915,173.878 112.646,174.302 110.094 C 175.977 100.013,176.786 97.053,177.867 97.053 L 178.558 97.053 178.598 99.436 M174.928 97.988 C 174.484 99.733,173.691 103.534,173.004 107.210 C 171.367 115.964,171.536 115.345,170.806 115.227 C 170.449 115.169,168.915 114.941,167.398 114.720 C 158.454 113.414,144.979 109.452,145.358 108.240 C 145.616 107.416,146.925 104.520,147.355 103.824 C 147.568 103.480,147.799 103.022,147.869 102.808 C 147.955 102.543,149.292 102.078,152.054 101.351 C 159.630 99.358,160.643 99.158,168.652 98.078 C 175.599 97.141,175.141 97.148,174.928 97.988 M130.537 100.760 C 131.229 101.670,132.600 103.118,133.585 103.978 L 135.375 105.541 133.330 106.550 C 132.205 107.105,131.059 107.768,130.783 108.024 C 130.508 108.280,130.113 108.554,129.906 108.633 C 129.272 108.876,125.327 111.861,124.263 112.903 L 123.260 113.885 123.187 112.010 C 123.107 109.940,124.371 106.129,126.320 102.571 C 128.719 98.189,128.724 98.182,129.011 98.659 C 129.158 98.904,129.845 99.850,130.537 100.760 M242.376 103.199 C 244.166 103.702,246.085 104.316,246.640 104.563 C 247.195 104.809,248.190 105.213,248.852 105.459 C 250.292 105.996,250.349 105.932,246.897 107.652 C 240.925 110.628,240.111 110.760,239.618 108.840 C 239.530 108.495,238.846 106.781,238.099 105.031 C 237.351 103.280,236.740 101.797,236.740 101.735 C 236.740 101.619,236.935 101.669,242.376 103.199 M122.048 104.656 C 121.835 105.923,121.592 107.467,121.507 108.088 C 121.423 108.708,121.023 110.288,120.618 111.599 C 120.214 112.909,119.600 115.325,119.254 116.967 C 118.908 118.610,118.568 120.011,118.498 120.081 C 117.905 120.674,119.021 113.553,120.378 108.088 C 121.984 101.619,122.863 99.814,122.048 104.656 M260.255 104.892 C 261.074 106.443,261.985 108.361,262.279 109.154 L 262.815 110.597 260.749 109.285 C 259.613 108.563,257.653 107.454,256.393 106.820 L 254.103 105.668 256.268 103.767 C 258.824 101.523,258.415 101.407,260.255 104.892 M145.039 104.263 C 144.540 105.469,144.537 105.470,144.389 104.699 C 144.316 104.315,144.414 103.898,144.627 103.685 C 145.264 103.048,145.440 103.295,145.039 104.263 M142.666 106.520 C 142.702 107.513,142.779 107.511,140.877 106.551 L 139.323 105.767 140.571 105.280 C 141.257 105.012,141.931 104.681,142.069 104.545 C 142.348 104.269,142.617 105.158,142.666 106.520 M268.556 108.127 C 269.544 111.613,270.349 115.847,270.336 117.492 L 270.330 118.245 269.648 117.441 C 267.825 115.295,267.919 115.627,267.758 110.721 C 267.677 108.238,267.536 105.755,267.447 105.204 C 267.170 103.505,267.471 104.298,268.556 108.127 M250.447 110.784 C 250.124 116.150,249.104 122.223,247.455 128.594 C 246.454 132.462,246.387 132.586,246.159 130.983 C 245.895 129.134,244.807 124.362,244.155 122.196 C 243.833 121.126,243.143 118.784,242.622 116.991 C 242.101 115.197,241.522 113.362,241.334 112.911 C 241.004 112.118,241.441 111.599,242.440 111.599 C 242.811 111.599,246.730 109.926,248.358 109.072 C 249.347 108.554,250.259 108.120,250.383 108.109 C 250.514 108.097,250.541 109.223,250.447 110.784 M239.941 114.545 C 242.753 121.699,245.633 135.584,244.791 137.931 C 243.088 142.679,243.078 142.690,241.089 141.858 C 239.423 141.160,238.706 140.941,233.918 139.667 L 232.978 139.416 232.979 126.950 L 232.979 114.483 234.946 114.019 C 236.028 113.764,237.353 113.350,237.892 113.099 C 238.431 112.848,238.940 112.633,239.024 112.622 C 239.108 112.611,239.521 113.476,239.941 114.545 M175.674 117.739 C 176.639 117.818,177.849 117.945,178.362 118.022 C 179.480 118.188,179.371 117.696,179.935 125.154 C 180.159 128.126,180.457 131.230,180.596 132.050 C 180.734 132.871,180.907 134.008,180.980 134.577 L 181.111 135.611 179.396 135.777 C 177.411 135.969,176.116 136.088,173.668 136.303 C 172.702 136.388,171.697 136.520,171.433 136.597 C 170.817 136.776,171.308 128.593,172.286 122.382 C 172.995 117.876,173.125 117.360,173.525 117.478 C 173.741 117.543,174.708 117.660,175.674 117.739 M216.754 118.421 C 216.398 122.288,215.819 127.309,215.262 131.351 L 214.596 136.182 212.941 136.041 C 210.344 135.819,209.739 135.690,209.735 135.357 C 209.717 134.059,209.351 127.923,209.268 127.524 C 209.210 127.248,209.048 125.724,208.907 124.138 C 208.766 122.552,208.581 120.549,208.495 119.687 L 208.339 118.119 210.063 118.097 C 211.011 118.085,212.351 118.000,213.041 117.909 C 213.730 117.818,214.865 117.709,215.562 117.668 L 216.830 117.594 216.754 118.421 M195.298 118.491 C 201.539 118.494,206.646 118.509,206.646 118.526 C 206.646 118.542,206.814 120.179,207.019 122.162 C 207.466 126.474,208.150 134.296,208.150 135.084 C 208.150 135.639,208.123 135.643,205.580 135.483 C 202.618 135.295,189.827 135.246,185.601 135.406 C 183.250 135.495,182.730 135.450,182.690 135.155 C 182.663 134.958,182.564 133.724,182.469 132.414 C 182.375 131.103,182.248 129.693,182.188 129.279 C 182.049 128.327,181.317 119.442,181.317 118.710 C 181.317 118.197,181.398 118.173,182.633 118.325 C 183.357 118.415,189.056 118.489,195.298 118.491 M269.111 120.125 C 269.435 120.373,270.343 123.291,270.583 124.855 C 270.864 126.688,270.455 129.412,269.628 131.212 L 269.133 132.288 269.112 130.962 C 269.082 129.053,268.617 125.106,268.131 122.633 C 267.900 121.461,267.747 119.999,267.791 119.384 L 267.871 118.266 268.409 119.133 C 268.704 119.610,269.020 120.056,269.111 120.125 M117.492 140.188 C 117.283 140.846,117.562 141.693,117.988 141.693 C 118.426 141.693,119.670 140.215,119.485 139.916 C 119.196 139.448,117.660 139.658,117.492 140.188 M190.846 156.113 C 190.777 165.216,190.799 172.781,190.894 172.922 C 191.172 173.339,200.693 173.126,200.980 172.697 C 201.692 171.634,201.141 171.512,195.991 171.588 L 191.097 171.661 191.097 164.890 L 191.098 158.119 195.925 158.037 C 200.869 157.954,201.241 157.885,201.086 157.080 C 201.003 156.648,200.640 156.610,196.050 156.546 L 191.104 156.478 191.038 148.020 C 190.992 142.182,190.933 144.690,190.846 156.113 M214.276 140.135 C 213.504 140.786,211.152 153.656,211.287 156.489 C 211.323 157.248,211.365 158.122,211.382 158.433 C 211.426 159.294,211.836 159.104,212.017 158.138 C 212.178 157.282,212.183 157.279,213.864 157.127 C 218.965 156.664,222.065 156.116,222.151 155.659 C 222.355 154.580,222.194 154.554,218.145 155.022 C 212.844 155.635,212.567 155.630,212.759 154.922 C 212.843 154.611,213.255 152.495,213.675 150.219 C 214.094 147.944,214.654 145.235,214.918 144.201 C 215.862 140.508,215.624 138.998,214.276 140.135 M153.832 140.169 C 153.774 140.228,152.796 140.285,151.659 140.295 C 149.838 140.311,149.601 140.366,149.666 140.751 C 149.719 141.066,149.368 141.356,148.412 141.787 C 145.979 142.885,145.998 142.887,145.890 141.517 C 145.828 140.722,145.780 141.016,145.751 142.382 C 145.698 144.804,145.639 144.770,148.260 143.824 C 149.216 143.480,150.085 143.197,150.190 143.197 C 150.525 143.197,154.139 152.151,153.900 152.390 C 153.840 152.450,152.156 152.099,150.158 151.610 C 148.159 151.121,146.340 150.721,146.115 150.721 C 145.742 150.721,145.711 151.565,145.765 160.063 L 145.824 169.404 145.893 160.841 L 145.963 152.277 147.151 152.643 C 147.804 152.845,149.857 153.345,151.713 153.756 C 153.569 154.166,155.102 154.526,155.121 154.555 C 155.168 154.629,157.668 159.846,158.291 161.171 C 159.003 162.687,159.345 162.305,159.168 160.192 C 159.069 159.012,158.776 157.923,158.262 156.824 C 157.510 155.217,157.508 155.201,158.062 155.273 C 160.003 155.524,159.529 153.462,157.572 153.142 C 156.257 152.927,155.492 151.495,153.119 144.807 L 152.312 142.530 152.958 142.243 C 153.498 142.005,156.088 141.324,158.433 140.805 C 158.743 140.736,158.997 140.577,158.997 140.451 C 158.997 140.227,154.042 139.957,153.832 140.169 M259.521 142.166 C 258.602 142.824,257.058 143.779,256.091 144.287 C 254.319 145.218,253.324 146.591,253.960 147.227 C 254.195 147.461,254.233 147.444,257.429 145.645 C 259.864 144.276,259.864 144.276,258.444 147.435 C 257.817 148.830,257.302 150.056,257.300 150.158 C 257.281 151.096,256.776 150.978,255.588 149.758 C 254.036 148.165,253.542 148.089,253.542 149.445 C 253.542 150.284,253.710 150.587,254.694 151.530 L 255.845 152.633 254.882 154.432 L 253.918 156.230 253.775 154.542 L 253.631 152.853 253.585 154.608 C 253.559 155.574,253.467 157.125,253.379 158.056 C 253.207 159.877,253.673 160.439,254.315 159.185 C 255.012 157.824,257.192 154.232,257.321 154.232 C 258.406 154.231,260.149 160.035,260.009 163.180 L 259.894 165.768 260.943 165.768 C 262.793 165.768,263.904 163.674,264.036 159.937 C 264.142 156.925,263.899 156.849,262.789 159.549 C 262.004 161.458,261.939 161.544,261.877 160.740 C 261.728 158.786,260.174 154.919,258.750 152.963 C 258.248 152.272,258.633 151.184,261.465 145.310 C 262.402 143.366,262.526 142.350,261.929 141.498 C 261.426 140.779,261.477 140.765,259.521 142.166 M236.352 142.141 C 236.496 142.232,236.727 142.331,236.865 142.362 C 237.359 142.472,242.073 144.183,242.181 144.292 C 242.299 144.410,241.371 146.835,240.249 149.342 L 239.575 150.846 236.664 151.540 C 235.063 151.921,233.579 152.300,233.366 152.381 C 233.023 152.513,232.978 151.875,232.978 146.894 L 232.978 141.258 234.534 141.618 C 235.390 141.816,236.208 142.051,236.352 142.141 M145.801 147.586 C 145.802 149.241,145.842 149.886,145.891 149.018 C 145.940 148.151,145.940 146.797,145.890 146.009 C 145.841 145.221,145.801 145.931,145.801 147.586 M238.105 153.542 C 237.842 154.398,235.770 158.390,234.887 159.743 C 234.458 160.401,233.856 161.377,233.550 161.911 L 232.993 162.884 233.048 158.511 L 233.103 154.139 235.486 153.587 C 236.796 153.284,237.961 153.023,238.073 153.007 C 238.186 152.991,238.200 153.232,238.105 153.542 M253.634 162.884 C 253.635 164.263,253.677 164.796,253.727 164.067 C 253.778 163.338,253.778 162.210,253.726 161.559 C 253.675 160.908,253.633 161.505,253.634 162.884 M258.867 167.974 C 258.416 168.020,258.112 168.163,258.192 168.292 C 258.272 168.421,258.189 168.525,258.009 168.522 C 257.828 168.520,256.735 169.507,255.580 170.717 L 253.479 172.915 253.388 174.886 C 253.265 177.537,253.490 177.893,254.499 176.642 C 254.928 176.110,255.827 174.997,256.496 174.169 C 257.868 172.473,260.313 168.739,260.313 168.340 C 260.313 167.989,259.855 167.873,258.867 167.974 M145.761 174.608 C 145.812 179.269,145.823 179.380,145.893 175.959 L 145.970 172.232 148.419 174.705 C 151.111 177.425,154.474 180.477,155.549 181.176 C 156.299 181.665,156.420 182.108,155.916 182.526 C 155.557 182.823,153.464 182.280,148.924 180.713 C 145.762 179.621,145.705 179.618,145.705 180.564 C 145.705 181.066,145.580 181.317,145.329 181.317 C 145.122 181.317,144.953 181.429,144.953 181.567 C 144.953 181.705,145.122 181.818,145.329 181.818 C 145.593 181.818,145.705 182.085,145.705 182.711 C 145.705 183.242,145.807 183.541,145.956 183.448 C 146.094 183.363,146.207 183.413,146.207 183.559 C 146.207 183.705,146.094 183.824,145.956 183.824 C 145.811 183.824,145.708 184.594,145.712 185.643 L 145.718 187.461 147.279 188.636 C 148.574 189.611,149.054 189.825,150.094 189.890 C 151.215 189.960,151.357 190.035,151.435 190.596 C 151.594 191.747,152.801 192.606,158.113 195.344 C 173.562 203.309,190.860 205.803,209.404 202.740 C 214.007 201.979,217.271 201.244,218.281 200.740 C 218.683 200.540,219.108 200.376,219.227 200.376 C 219.497 200.376,224.508 198.397,224.684 198.221 C 224.918 197.987,224.089 197.625,223.310 197.621 C 222.890 197.619,222.425 197.497,222.277 197.349 C 222.086 197.158,221.401 197.261,219.907 197.706 C 216.165 198.821,207.853 199.492,206.691 198.774 C 206.286 198.524,206.848 197.412,207.426 197.317 C 208.836 197.086,204.631 194.549,203.147 194.736 L 202.006 194.880 202.821 194.505 C 203.713 194.096,203.815 193.737,203.251 192.991 C 202.890 192.514,202.820 192.527,200.230 193.578 C 197.388 194.731,196.915 194.749,197.906 193.665 C 198.251 193.287,198.955 192.329,199.469 191.536 C 200.186 190.428,200.545 190.094,201.017 190.094 C 201.731 190.094,201.920 188.936,201.248 188.678 C 200.975 188.573,200.939 188.441,201.123 188.220 C 201.358 187.937,201.322 187.315,200.973 185.608 C 200.871 185.107,200.709 185.302,199.975 186.816 L 199.099 188.621 195.711 188.559 C 191.984 188.489,192.149 188.566,191.598 186.655 C 190.860 184.093,190.547 185.257,190.769 189.740 C 190.899 192.369,191.010 193.303,191.094 192.476 L 191.223 191.223 191.787 192.753 C 192.473 194.614,192.477 194.693,191.866 194.366 C 191.082 193.946,190.846 194.060,190.846 194.859 L 190.846 195.611 193.103 195.611 L 195.361 195.611 195.361 196.598 C 195.361 197.141,195.254 197.865,195.124 198.207 C 194.896 198.808,196.298 201.321,197.211 201.948 C 197.366 202.055,195.715 202.124,193.542 202.103 C 189.461 202.062,189.181 202.002,190.191 201.375 C 195.654 197.983,194.289 197.486,181.667 198.275 C 179.199 198.429,179.121 198.418,178.713 197.837 C 178.300 197.252,178.306 197.240,179.034 197.164 C 180.345 197.028,180.739 195.361,179.460 195.361 C 177.879 195.361,175.946 196.991,176.491 197.864 C 176.662 198.139,176.803 198.393,176.803 198.429 C 176.805 198.818,166.453 198.117,165.230 197.645 C 162.845 196.726,160.002 193.499,160.000 191.711 C 160.000 191.565,159.595 191.057,159.100 190.582 C 158.071 189.594,157.110 187.853,156.861 186.523 C 156.619 185.234,156.822 185.041,157.988 185.453 C 159.208 185.883,159.195 185.919,159.201 182.257 C 159.206 179.497,159.008 179.018,158.245 179.937 C 158.073 180.144,157.822 180.313,157.687 180.313 C 157.240 180.313,150.832 174.596,148.416 172.042 C 147.109 170.660,145.965 169.530,145.873 169.530 C 145.781 169.530,145.730 171.815,145.761 174.608 M240.293 173.862 C 239.037 175.141,236.887 177.144,235.516 178.313 C 234.145 179.482,232.897 180.705,232.743 181.030 C 232.398 181.758,232.419 191.587,232.766 192.015 C 232.916 192.200,232.906 192.366,232.739 192.469 C 232.344 192.714,232.424 193.851,232.848 194.014 C 233.340 194.203,239.562 190.312,242.194 188.169 C 243.154 187.389,243.260 187.192,243.260 186.205 C 243.260 184.646,243.080 184.654,240.463 186.333 C 238.216 187.776,235.905 189.091,235.617 189.091 C 235.542 189.091,235.962 188.498,236.552 187.774 C 237.141 187.050,238.064 185.704,238.602 184.783 C 239.449 183.334,239.736 183.051,240.731 182.684 C 242.572 182.004,243.009 181.644,243.009 180.809 C 243.009 179.999,242.728 179.896,241.642 180.309 L 240.995 180.555 241.386 179.745 C 241.600 179.299,241.883 178.740,242.013 178.504 C 242.719 177.225,243.370 171.536,242.812 171.536 C 242.683 171.536,241.550 172.583,240.293 173.862 M211.551 172.483 C 211.474 172.560,211.411 172.940,211.411 173.329 C 211.411 174.105,211.397 174.099,214.169 174.546 C 216.440 174.912,218.217 175.296,218.809 175.547 C 221.404 176.648,222.194 176.647,222.194 175.543 C 222.194 174.506,220.111 173.784,214.295 172.806 C 213.329 172.644,212.348 172.473,212.115 172.427 C 211.881 172.381,211.628 172.406,211.551 172.483 M190.953 178.683 C 190.953 181.580,190.989 182.731,191.034 181.240 C 191.078 179.750,191.078 177.380,191.033 175.974 C 190.989 174.568,190.952 175.787,190.953 178.683 M240.729 176.740 C 240.586 177.119,239.958 178.397,239.335 179.579 L 238.203 181.729 236.029 182.442 C 234.834 182.834,233.715 183.205,233.542 183.266 C 232.809 183.525,233.333 182.629,234.373 181.845 C 235.460 181.026,236.891 179.769,239.603 177.249 C 240.304 176.597,240.903 176.061,240.934 176.057 C 240.965 176.053,240.873 176.361,240.729 176.740 M218.558 180.910 C 216.765 182.687,214.484 184.757,213.489 185.510 C 211.650 186.903,211.263 187.469,211.385 188.589 C 211.494 189.586,211.596 189.598,215.551 189.061 C 217.618 188.781,219.762 188.502,220.313 188.443 L 221.317 188.334 219.834 189.087 C 219.018 189.501,217.212 190.305,215.821 190.874 C 212.367 192.286,211.912 192.543,211.912 193.079 C 211.912 194.513,213.640 194.128,218.934 191.516 L 222.069 189.969 222.149 188.995 C 222.218 188.146,222.170 188.041,221.773 188.180 C 221.342 188.331,221.341 188.321,221.755 187.998 C 222.304 187.571,222.349 186.332,221.815 186.332 C 221.607 186.332,220.394 186.497,219.120 186.699 C 215.389 187.289,214.273 187.401,214.545 187.158 C 214.683 187.035,215.304 186.528,215.925 186.031 C 217.081 185.106,221.318 180.992,221.881 180.247 C 222.219 179.801,222.315 177.885,222.006 177.758 C 221.903 177.715,220.351 179.134,218.558 180.910 M152.895 183.984 C 153.747 184.310,154.565 184.577,154.714 184.577 C 154.875 184.577,154.984 185.138,154.984 185.964 C 154.984 186.727,155.151 187.750,155.354 188.236 C 156.301 190.502,151.486 187.361,148.970 184.072 L 147.528 182.187 149.438 182.790 C 150.489 183.121,152.044 183.658,152.895 183.984 M177.066 187.030 C 176.852 187.069,176.066 187.012,175.319 186.904 L 173.961 186.708 173.505 184.827 C 173.254 183.793,173.047 182.859,173.045 182.752 C 173.043 182.645,174.034 183.548,175.248 184.758 C 176.701 186.207,177.322 186.983,177.066 187.030 M235.456 186.019 C 232.942 189.226,232.866 189.308,233.082 188.589 C 233.186 188.245,233.332 187.370,233.406 186.645 L 233.542 185.328 235.078 184.841 C 235.923 184.573,236.652 184.348,236.699 184.340 C 236.745 184.332,236.186 185.088,235.456 186.019 M197.320 191.251 C 195.930 193.186,194.802 194.401,194.597 194.186 C 194.218 193.789,192.853 190.904,192.853 190.502 C 192.853 190.151,193.223 190.094,195.501 190.094 L 198.150 190.094 197.320 191.251 M158.021 192.259 C 158.532 192.874,158.131 192.856,157.357 192.228 C 156.715 191.708,156.690 191.645,157.170 191.765 C 157.476 191.841,157.859 192.064,158.021 192.259 M170.887 194.394 C 170.821 194.500,171.045 194.768,171.383 194.990 C 172.054 195.429,173.821 195.415,173.967 194.970 C 174.067 194.663,171.067 194.102,170.887 194.394 M218.662 194.707 C 218.605 194.762,217.599 194.885,216.426 194.982 C 213.714 195.204,212.989 195.814,214.966 196.210 C 216.211 196.458,219.418 195.259,218.898 194.740 C 218.826 194.667,218.720 194.653,218.662 194.707 M204.052 197.360 C 204.718 197.366,204.823 197.446,204.713 197.867 C 204.560 198.450,203.786 198.390,201.096 197.589 L 199.498 197.113 201.379 197.233 C 202.414 197.299,203.616 197.356,204.052 197.360 M200.428 199.257 C 201.766 199.596,203.036 199.875,203.249 199.875 C 203.822 199.875,203.724 200.230,202.909 201.102 C 201.468 202.644,199.307 201.847,197.304 199.034 L 196.772 198.287 197.383 198.463 C 197.719 198.559,199.089 198.917,200.428 199.257 M190.345 198.723 C 190.345 198.779,189.809 199.206,189.154 199.673 C 186.521 201.549,184.475 202.012,182.535 201.172 C 180.446 200.268,180.617 200.003,183.448 199.761 C 185.358 199.597,187.706 199.235,189.091 198.890 C 190.192 198.617,190.345 198.596,190.345 198.723 M178.161 200.278 C 178.379 200.361,178.558 200.519,178.558 200.627 C 178.558 200.835,176.869 200.527,176.615 200.273 C 176.421 200.079,177.653 200.082,178.161 200.278 M208.464 200.537 C 209.853 200.767,209.610 201.041,207.837 201.241 C 206.975 201.338,205.964 201.479,205.590 201.553 C 204.935 201.684,204.921 201.665,205.213 201.034 C 205.540 200.331,206.410 200.198,208.464 200.537 M158.821 210.658 C 158.821 211.417,158.868 211.727,158.926 211.348 C 158.983 210.969,158.983 210.348,158.926 209.969 C 158.868 209.589,158.821 209.900,158.821 210.658 M223.273 210.658 C 223.273 211.417,223.320 211.727,223.377 211.348 C 223.435 210.969,223.435 210.348,223.377 209.969 C 223.320 209.589,223.273 209.900,223.273 210.658 M173.606 210.533 C 173.608 211.085,173.660 211.281,173.720 210.969 C 173.780 210.657,173.777 210.205,173.715 209.966 C 173.652 209.726,173.603 209.981,173.606 210.533 M294.533 218.056 C 294.533 222.746,294.567 224.629,294.608 222.241 C 294.649 219.853,294.649 216.016,294.608 213.714 C 294.566 211.413,294.533 213.367,294.533 218.056 M126.758 218.056 C 126.758 222.608,126.792 224.506,126.833 222.273 C 126.875 220.040,126.875 216.316,126.834 213.997 C 126.792 211.678,126.758 213.505,126.758 218.056 M270.536 211.588 C 270.848 211.648,271.299 211.646,271.539 211.583 C 271.779 211.520,271.524 211.471,270.972 211.474 C 270.420 211.477,270.224 211.528,270.536 211.588 M158.855 220.439 C 158.855 223.818,158.890 225.201,158.933 223.511 C 158.977 221.821,158.977 219.056,158.933 217.367 C 158.890 215.677,158.855 217.060,158.855 220.439 M228.071 220.439 C 228.071 223.818,228.106 225.201,228.150 223.511 C 228.193 221.821,228.193 219.056,228.150 217.367 C 228.106 215.677,228.071 217.060,228.071 220.439 M174.609 215.549 C 174.611 216.100,174.663 216.296,174.723 215.985 C 174.783 215.673,174.781 215.221,174.718 214.981 C 174.655 214.742,174.606 214.997,174.609 215.549 M223.306 220.690 C 223.306 224.069,223.341 225.451,223.385 223.762 C 223.428 222.072,223.428 219.307,223.385 217.618 C 223.341 215.928,223.306 217.310,223.306 220.690 M173.650 220.564 C 173.650 223.737,173.686 225.000,173.730 223.371 C 173.773 221.743,173.773 219.147,173.729 217.603 C 173.685 216.059,173.650 217.392,173.650 220.564 M258.415 220.564 C 258.415 223.737,258.451 225.000,258.495 223.371 C 258.538 221.743,258.538 219.147,258.494 217.603 C 258.450 216.059,258.415 217.392,258.415 220.564 M92.383 220.690 C 92.383 222.276,92.424 222.925,92.474 222.132 C 92.523 221.339,92.523 220.041,92.474 219.248 C 92.424 218.455,92.383 219.103,92.383 220.690 M103.175 222.194 C 103.175 224.608,103.213 225.596,103.259 224.389 C 103.305 223.182,103.305 221.207,103.259 220.000 C 103.213 218.793,103.175 219.781,103.175 222.194 M209.005 222.320 C 209.005 224.665,209.043 225.658,209.089 224.526 C 209.136 223.395,209.136 221.477,209.090 220.263 C 209.044 219.049,209.006 219.975,209.005 222.320 M98.893 220.690 C 98.893 221.724,98.937 222.147,98.991 221.630 C 99.046 221.113,99.046 220.266,98.991 219.749 C 98.937 219.232,98.893 219.655,98.893 220.690 M116.441 220.313 C 116.443 221.141,116.490 221.449,116.545 220.999 C 116.601 220.548,116.600 219.871,116.543 219.494 C 116.486 219.117,116.440 219.486,116.441 220.313 M146.147 219.112 C 146.459 219.172,146.910 219.169,147.150 219.106 C 147.390 219.044,147.135 218.995,146.583 218.997 C 146.031 219.000,145.835 219.052,146.147 219.112 M216.609 219.115 C 217.054 219.171,217.844 219.171,218.364 219.117 C 218.885 219.063,218.520 219.018,217.555 219.016 C 216.589 219.015,216.164 219.060,216.609 219.115 M221.756 219.812 C 221.759 220.364,221.810 220.560,221.870 220.248 C 221.930 219.936,221.928 219.484,221.865 219.245 C 221.802 219.005,221.753 219.260,221.756 219.812 M251.719 219.115 C 252.164 219.171,252.954 219.171,253.474 219.117 C 253.994 219.063,253.630 219.018,252.665 219.016 C 251.699 219.015,251.273 219.060,251.719 219.115 M279.315 219.116 C 279.766 219.172,280.443 219.171,280.820 219.113 C 281.196 219.056,280.828 219.010,280.000 219.012 C 279.172 219.013,278.864 219.060,279.315 219.116 M109.417 220.439 C 109.417 221.197,109.464 221.508,109.521 221.129 C 109.579 220.749,109.579 220.129,109.521 219.749 C 109.464 219.370,109.417 219.680,109.417 220.439 M139.012 220.564 C 139.013 221.392,139.060 221.700,139.116 221.249 C 139.172 220.799,139.171 220.122,139.113 219.745 C 139.056 219.368,139.010 219.737,139.012 220.564 M146.147 222.372 C 146.459 222.432,146.910 222.429,147.150 222.367 C 147.390 222.304,147.135 222.255,146.583 222.258 C 146.031 222.260,145.835 222.312,146.147 222.372 M92.382 228.339 C 92.383 229.856,92.424 230.444,92.474 229.646 C 92.524 228.848,92.523 227.606,92.473 226.887 C 92.422 226.168,92.382 226.821,92.382 228.339 " stroke="none" fill="#9f9f9f" fill-rule="evenodd"></path><path id="path3" d="M193.035 51.341 C 193.480 51.396,194.270 51.397,194.791 51.343 C 195.311 51.289,194.947 51.243,193.981 51.242 C 193.016 51.241,192.590 51.285,193.035 51.341 M204.451 65.627 C 204.693 65.690,205.088 65.690,205.329 65.627 C 205.571 65.564,205.373 65.513,204.890 65.513 C 204.408 65.513,204.210 65.564,204.451 65.627 M209.279 66.207 C 209.791 66.773,210.126 66.899,209.675 66.357 C 209.451 66.087,209.459 65.975,209.707 65.875 C 209.886 65.803,209.760 65.736,209.428 65.725 C 208.841 65.706,208.837 65.718,209.279 66.207 M193.671 81.183 C 194.052 81.241,194.617 81.239,194.925 81.180 C 195.234 81.120,194.922 81.073,194.232 81.075 C 193.542 81.077,193.290 81.125,193.671 81.183 M180.131 92.790 C 180.131 93.411,180.180 93.665,180.240 93.354 C 180.299 93.044,180.299 92.536,180.240 92.226 C 180.180 91.915,180.131 92.169,180.131 92.790 M219.750 93.166 C 219.753 93.718,219.804 93.914,219.864 93.602 C 219.924 93.290,219.922 92.839,219.859 92.599 C 219.796 92.359,219.747 92.614,219.750 93.166 M194.420 94.718 C 194.661 94.781,195.056 94.781,195.298 94.718 C 195.539 94.655,195.342 94.604,194.859 94.604 C 194.376 94.604,194.179 94.655,194.420 94.718 M219.745 95.799 C 219.745 96.282,219.796 96.480,219.859 96.238 C 219.922 95.997,219.922 95.602,219.859 95.361 C 219.796 95.119,219.745 95.317,219.745 95.799 M252.331 103.416 C 252.294 104.476,252.338 104.597,252.665 104.326 C 253.079 103.982,253.178 103.710,252.805 103.940 C 252.676 104.020,252.526 103.660,252.471 103.140 C 252.383 102.290,252.368 102.318,252.331 103.416 M218.823 114.335 C 218.730 114.485,218.378 114.608,218.042 114.608 C 217.405 114.608,217.293 114.952,217.580 116.022 C 217.708 116.497,217.966 116.579,219.819 116.733 L 221.915 116.908 221.992 127.858 C 222.078 140.090,222.089 139.936,221.186 139.120 C 219.509 137.604,210.793 136.680,209.743 137.907 C 209.495 138.196,209.025 138.433,208.698 138.433 C 207.135 138.433,204.534 140.361,203.116 142.571 C 202.585 143.398,202.039 144.205,201.903 144.364 C 201.154 145.241,200.502 152.983,200.876 156.552 C 200.898 156.762,200.904 172.683,200.882 172.978 C 200.759 174.637,200.958 185.567,201.130 186.567 C 201.282 187.451,201.276 188.035,201.114 188.230 C 200.941 188.440,200.989 188.579,201.276 188.688 C 201.578 188.805,201.654 189.059,201.563 189.658 C 201.442 190.464,202.405 192.602,202.890 192.602 C 203.005 192.602,203.298 193.053,203.541 193.605 C 203.785 194.157,204.057 194.608,204.147 194.608 C 204.412 194.608,207.446 196.692,208.037 197.279 C 208.961 198.198,213.798 198.946,216.301 198.557 C 218.052 198.284,219.754 197.835,220.125 197.548 C 220.298 197.415,220.439 197.375,220.439 197.459 C 220.439 197.544,220.777 197.259,221.191 196.826 C 221.855 196.131,221.944 196.098,221.944 196.547 C 221.944 197.747,222.934 197.910,231.034 198.035 L 237.492 198.135 237.492 196.748 L 237.492 195.361 235.235 195.361 C 233.009 195.361,232.978 195.352,232.978 194.748 C 232.978 194.412,232.865 194.066,232.727 193.981 C 232.396 193.776,232.405 192.676,232.739 192.469 C 232.911 192.363,232.918 192.204,232.759 192.013 C 232.511 191.714,232.541 188.034,232.911 173.751 C 233.017 169.659,233.008 166.330,232.891 166.353 C 232.773 166.376,232.693 154.743,232.712 140.502 C 232.731 126.260,232.657 114.604,232.549 114.600 C 232.440 114.595,231.053 114.546,229.467 114.491 C 227.881 114.436,224.875 114.317,222.787 114.226 C 220.154 114.112,218.940 114.145,218.823 114.335 M315.786 115.549 L 315.862 116.740 318.056 116.812 L 320.251 116.885 320.251 156.123 L 320.251 195.361 317.994 195.361 L 315.737 195.361 315.737 196.740 L 315.737 198.119 325.768 198.119 L 335.799 198.119 335.799 196.740 L 335.799 195.361 333.417 195.361 L 331.034 195.361 331.034 180.548 L 331.034 165.735 331.691 164.874 C 332.622 163.653,332.597 163.618,333.782 167.837 C 334.373 169.940,335.115 172.511,335.431 173.548 C 335.747 174.586,336.085 175.856,336.181 176.370 C 336.278 176.884,336.439 177.304,336.540 177.304 C 336.641 177.304,336.843 177.727,336.989 178.245 C 337.135 178.762,338.015 181.893,338.944 185.204 C 339.873 188.514,340.708 191.279,340.800 191.348 C 340.891 191.417,341.204 192.348,341.494 193.417 L 342.022 195.361 340.039 195.361 L 338.056 195.361 338.056 196.743 L 338.056 198.125 347.774 198.059 L 357.492 197.994 357.568 196.677 C 357.718 194.066,358.119 195.388,358.119 198.495 L 358.119 201.630 359.248 201.630 L 360.376 201.630 360.376 198.495 L 360.376 195.361 361.379 195.361 L 362.382 195.361 362.382 198.495 L 362.382 201.630 363.372 201.630 L 364.361 201.630 364.444 200.439 L 364.527 199.248 364.864 200.439 C 365.264 201.853,366.913 202.265,367.376 201.066 C 367.952 199.575,368.145 199.232,368.119 199.749 C 368.026 201.537,368.094 201.665,369.091 201.583 L 370.031 201.505 370.031 197.492 L 370.031 193.480 368.979 193.403 C 367.765 193.315,367.537 193.609,366.773 196.238 L 366.336 197.743 365.554 195.543 L 364.772 193.343 360.254 193.411 L 355.737 193.480 355.659 194.420 L 355.581 195.361 354.217 195.361 C 353.467 195.361,352.853 195.301,352.853 195.228 C 352.853 194.842,349.733 183.930,349.592 183.824 C 349.443 183.712,346.861 174.720,345.883 170.909 C 345.671 170.082,345.410 169.346,345.303 169.274 C 345.197 169.202,344.819 168.074,344.464 166.766 C 344.110 165.458,343.612 163.655,343.358 162.759 C 343.105 161.862,342.522 159.774,342.064 158.119 C 341.606 156.464,341.161 155.053,341.076 154.984 C 340.253 154.320,340.416 153.058,341.482 151.847 C 342.081 151.166,342.571 150.513,342.571 150.395 C 342.571 150.195,344.508 147.537,345.259 146.708 C 345.446 146.502,345.962 145.811,346.405 145.174 C 348.751 141.797,351.079 140.444,354.545 140.440 L 355.862 140.439 355.862 139.181 L 355.862 137.922 349.530 137.989 L 343.197 138.056 343.114 138.646 C 342.916 140.045,343.226 140.408,344.687 140.489 L 346.048 140.564 344.401 142.696 C 343.495 143.868,342.421 145.363,342.014 146.018 C 341.607 146.673,341.131 147.294,340.956 147.397 C 340.782 147.501,339.871 148.715,338.933 150.094 C 337.996 151.473,336.850 152.987,336.389 153.459 C 335.927 153.930,335.549 154.409,335.549 154.523 C 335.549 154.766,332.852 158.484,331.775 159.726 L 331.034 160.580 331.034 137.469 L 331.034 114.357 323.372 114.357 L 315.709 114.357 315.786 115.549 M192.038 117.042 C 192.348 117.102,192.856 117.102,193.166 117.042 C 193.476 116.982,193.223 116.934,192.602 116.934 C 191.981 116.934,191.727 116.982,192.038 117.042 M197.555 117.042 C 197.865 117.102,198.373 117.102,198.683 117.042 C 198.994 116.982,198.740 116.934,198.119 116.934 C 197.498 116.934,197.245 116.982,197.555 117.042 M80.045 118.427 C 75.544 120.199,75.589 128.787,80.107 130.513 C 85.096 132.418,89.781 129.470,89.781 124.424 C 89.781 119.209,85.208 116.393,80.045 118.427 M143.448 124.328 C 142.828 124.698,142.285 125.081,142.242 125.180 C 142.199 125.279,141.578 125.727,140.862 126.176 C 140.147 126.625,139.190 127.384,138.737 127.864 C 138.138 128.497,137.838 128.659,137.637 128.459 C 137.437 128.258,137.279 128.264,137.059 128.480 C 136.893 128.644,136.400 129.048,135.964 129.379 L 135.172 129.981 135.172 133.956 L 135.172 137.931 132.163 137.931 L 129.154 137.931 129.154 139.185 L 129.154 140.439 132.135 140.439 L 135.117 140.439 135.226 144.138 C 135.286 146.172,135.243 147.960,135.130 148.111 C 135.018 148.261,135.001 148.460,135.092 148.551 C 135.184 148.643,135.239 158.460,135.215 170.367 C 135.178 188.437,135.230 192.212,135.527 193.200 C 137.642 200.228,148.934 200.517,151.096 193.598 C 151.203 193.257,151.405 192.904,151.546 192.814 C 151.715 192.705,151.725 192.193,151.575 191.309 L 151.348 189.969 150.333 189.894 L 149.317 189.819 149.002 191.049 C 148.375 193.495,147.241 194.063,146.406 192.351 C 145.820 191.150,145.498 184.256,145.999 183.637 C 146.239 183.341,146.245 183.279,146.019 183.415 C 145.791 183.552,145.705 183.358,145.705 182.711 C 145.705 182.085,145.593 181.818,145.329 181.818 C 145.122 181.818,144.953 181.705,144.953 181.567 C 144.953 181.429,145.122 181.317,145.329 181.317 C 145.586 181.317,145.706 181.057,145.709 180.502 C 145.711 180.053,145.713 170.873,145.714 160.101 L 145.716 140.515 148.783 140.355 C 150.469 140.266,152.103 140.262,152.414 140.346 C 152.946 140.489,152.978 140.424,152.978 139.189 L 152.978 137.880 151.034 137.958 C 149.966 138.001,148.329 138.012,147.398 137.983 L 145.705 137.931 145.705 131.269 C 145.705 123.097,145.674 123.002,143.448 124.328 M269.154 137.806 C 269.157 138.357,269.208 138.554,269.268 138.242 C 269.328 137.930,269.326 137.478,269.263 137.238 C 269.200 136.999,269.151 137.254,269.154 137.806 M114.651 138.124 C 113.740 138.575,112.883 139.054,112.748 139.190 C 112.314 139.623,112.100 139.456,112.100 138.683 L 112.100 137.931 104.451 137.931 L 96.803 137.931 96.803 139.185 L 96.803 140.439 99.060 140.439 L 101.317 140.439 101.317 167.900 L 101.317 195.361 99.060 195.361 L 96.803 195.361 96.803 196.740 L 96.803 198.119 106.834 198.119 L 116.865 198.119 116.865 196.740 L 116.865 195.361 114.477 195.361 L 112.089 195.361 112.157 170.219 C 112.234 142.077,112.086 144.237,114.077 142.165 C 115.343 140.847,116.331 140.192,117.053 140.190 C 117.364 140.189,117.618 140.075,117.618 139.937 C 117.618 139.623,119.292 139.604,119.485 139.916 C 119.677 140.227,118.418 141.693,117.959 141.693 C 117.317 141.693,116.626 143.670,116.620 145.525 C 116.613 147.640,116.973 148.517,118.470 150.031 C 119.633 151.208,119.840 151.321,120.678 151.238 C 120.912 151.214,121.364 151.363,121.681 151.569 C 123.614 152.822,128.057 149.987,128.528 147.201 C 128.621 146.654,128.786 146.207,128.896 146.207 C 129.246 146.207,127.730 141.806,126.986 140.662 C 126.160 139.393,125.616 138.889,124.389 138.257 C 123.906 138.009,123.455 137.736,123.386 137.651 C 123.125 137.330,122.167 137.169,122.012 137.420 C 121.923 137.564,121.593 137.618,121.279 137.539 C 119.285 137.038,116.315 137.300,114.651 138.124 M254.608 137.356 C 254.298 137.415,254.044 137.551,254.044 137.658 C 254.044 137.764,253.441 137.986,252.704 138.151 C 250.695 138.601,247.596 140.533,247.142 141.618 C 246.942 142.098,246.555 142.549,246.284 142.620 C 245.991 142.696,245.669 143.121,245.495 143.663 C 245.333 144.166,244.989 144.779,244.732 145.025 C 244.474 145.272,244.263 145.639,244.263 145.840 C 244.263 146.042,244.165 146.207,244.046 146.207 C 243.749 146.207,243.042 148.858,243.009 150.094 C 242.798 158.087,242.676 171.536,242.815 171.536 C 242.914 171.536,242.939 174.518,242.870 178.162 C 242.786 182.569,242.830 184.842,243.002 184.948 C 243.144 185.036,243.261 185.637,243.262 186.284 C 243.263 187.457,243.674 189.354,243.978 189.592 C 244.066 189.661,244.533 190.487,245.016 191.426 C 246.251 193.831,249.171 196.505,251.532 197.394 C 257.141 199.504,264.741 198.832,268.086 195.929 C 271.874 192.642,273.125 189.629,273.507 182.879 C 273.735 178.838,273.652 178.558,272.226 178.558 C 270.873 178.558,270.914 178.435,270.762 182.947 C 270.651 186.206,270.034 189.089,269.272 189.895 C 268.641 190.563,267.586 192.076,267.586 192.313 C 267.586 193.041,264.029 195.060,261.747 195.627 C 258.574 196.417,255.642 194.778,254.439 191.542 C 253.787 189.787,253.312 176.674,253.687 170.755 L 253.839 168.345 256.637 168.178 C 258.177 168.086,259.549 168.029,259.687 168.052 C 259.824 168.075,263.305 168.138,267.421 168.192 L 274.905 168.291 274.791 158.942 C 274.680 149.751,274.432 147.061,273.644 146.458 C 273.553 146.389,273.100 145.570,272.637 144.638 C 272.116 143.592,271.421 142.649,270.819 142.172 C 270.282 141.747,269.843 141.252,269.843 141.072 C 269.843 140.799,268.992 140.238,268.953 140.485 C 268.946 140.529,268.443 140.138,267.835 139.617 C 267.226 139.096,266.595 138.721,266.432 138.784 C 266.268 138.847,265.609 138.618,264.967 138.276 C 264.263 137.901,263.605 137.716,263.309 137.810 C 262.988 137.912,262.767 137.829,262.668 137.572 C 262.521 137.189,256.334 137.023,254.608 137.356 M292.476 137.343 C 292.166 137.410,291.912 137.569,291.912 137.698 C 291.912 137.826,291.771 137.934,291.599 137.937 C 288.585 137.994,283.700 142.709,282.380 146.834 C 282.203 147.386,281.961 147.901,281.841 147.979 C 281.118 148.452,281.089 157.200,281.809 157.720 C 281.922 157.801,282.149 158.389,282.314 159.025 C 283.213 162.503,287.091 167.621,290.353 169.636 C 290.944 170.000,291.826 170.675,292.314 171.135 C 292.801 171.595,293.503 172.123,293.873 172.308 C 296.327 173.539,300.655 177.056,302.416 179.250 C 308.906 187.336,301.224 198.708,291.787 194.986 C 289.454 194.065,287.536 192.602,288.663 192.602 C 288.806 192.602,289.060 192.481,289.227 192.332 C 289.393 192.184,289.973 191.817,290.514 191.517 C 292.564 190.381,293.391 186.534,292.176 183.787 C 290.207 179.334,282.517 179.847,280.992 184.532 C 280.285 186.705,280.804 190.307,281.997 191.500 C 282.209 191.712,282.382 192.047,282.382 192.244 C 282.382 192.766,285.151 195.451,286.092 195.841 C 286.535 196.024,286.897 196.259,286.897 196.363 C 286.897 196.467,287.489 196.808,288.213 197.121 C 293.359 199.341,301.962 198.960,304.781 196.387 C 305.082 196.111,306.088 195.249,307.015 194.471 C 307.943 193.693,308.865 192.756,309.064 192.390 C 310.472 189.805,311.223 188.212,311.223 187.807 C 311.223 187.548,311.320 187.335,311.439 187.335 C 312.416 187.335,312.436 176.437,311.459 176.092 C 311.329 176.046,311.223 175.801,311.223 175.547 C 311.223 173.220,306.489 167.161,302.707 164.647 C 301.707 163.982,300.477 163.060,299.974 162.598 C 299.471 162.136,298.962 161.757,298.842 161.757 C 298.437 161.754,294.555 158.920,293.201 157.637 C 289.466 154.101,288.130 150.819,288.902 147.079 C 289.369 144.818,289.851 143.987,291.993 141.749 C 294.026 139.624,298.694 139.380,301.599 141.247 L 302.821 142.033 302.069 142.197 C 295.226 143.690,296.581 153.730,303.627 153.730 C 312.675 153.730,311.700 140.982,302.445 138.283 C 301.687 138.062,300.985 137.751,300.887 137.593 C 300.705 137.300,293.651 137.090,292.476 137.343 M164.890 137.680 C 164.795 137.835,162.714 137.931,159.484 137.931 L 154.232 137.931 154.232 139.060 L 154.232 140.188 156.552 140.188 L 158.871 140.188 158.793 146.520 C 158.737 150.996,158.803 153.126,159.018 153.785 C 159.261 154.529,159.258 154.796,159.001 155.105 C 158.683 155.488,158.717 156.648,159.149 160.178 C 159.237 160.896,159.237 161.671,159.149 161.901 C 158.924 162.488,158.831 179.561,159.053 179.561 C 159.153 179.561,159.182 181.113,159.116 183.009 C 158.905 189.117,159.001 190.580,159.650 191.119 C 159.843 191.279,160.000 191.537,160.000 191.692 C 160.001 192.532,161.551 195.108,162.624 196.052 C 165.785 198.835,174.273 199.326,176.476 196.854 C 176.823 196.465,177.524 195.979,178.035 195.775 C 178.545 195.570,179.111 195.224,179.293 195.006 C 179.474 194.787,179.709 194.608,179.815 194.608 C 180.092 194.608,180.283 196.439,180.038 196.753 C 179.925 196.898,179.902 197.280,179.986 197.601 L 180.139 198.186 186.746 198.025 C 192.537 197.885,193.354 197.912,193.354 198.243 C 193.354 198.702,193.647 198.729,194.067 198.309 C 194.315 198.061,194.424 198.073,194.605 198.365 C 194.958 198.935,195.184 198.494,195.308 196.990 L 195.423 195.611 193.135 195.611 L 190.846 195.611 190.846 194.859 C 190.846 194.445,190.973 194.107,191.128 194.107 C 191.319 194.107,191.329 194.006,191.160 193.793 C 190.856 193.410,190.481 185.580,190.767 185.580 C 190.916 185.580,190.967 176.474,190.838 172.908 C 190.747 170.402,190.904 140.187,191.013 139.252 L 191.165 137.940 183.169 137.946 L 175.172 137.952 175.259 139.195 L 175.346 140.439 177.695 140.439 L 180.043 140.439 180.116 148.652 C 180.155 153.169,180.132 160.458,180.063 164.849 C 179.994 169.240,179.975 172.870,180.021 172.916 C 180.068 172.962,180.096 176.505,180.085 180.789 L 180.065 188.579 178.766 190.744 C 177.825 192.313,177.273 192.977,176.759 193.156 C 176.369 193.292,176.050 193.558,176.050 193.746 C 176.050 194.153,175.279 194.608,174.589 194.608 C 174.319 194.608,174.033 194.777,173.953 194.984 C 173.759 195.490,172.067 195.479,171.337 194.967 C 171.028 194.751,170.840 194.469,170.920 194.340 C 170.999 194.212,170.953 194.107,170.818 194.107 C 170.533 194.107,170.147 192.969,169.881 191.348 C 169.696 190.219,169.660 185.855,169.575 154.796 L 169.530 138.182 167.669 138.182 C 165.696 138.182,164.930 138.021,165.157 137.654 C 165.234 137.530,165.240 137.429,165.171 137.429 C 165.102 137.429,164.976 137.542,164.890 137.680 M31.348 139.185 L 31.348 140.439 33.721 140.439 L 36.094 140.439 36.335 141.379 C 36.467 141.897,36.768 143.223,37.004 144.326 C 37.239 145.429,37.519 146.445,37.627 146.583 C 37.734 146.721,38.347 149.204,38.988 152.100 C 40.946 160.943,41.636 163.865,41.888 164.389 C 42.109 164.848,44.620 175.763,45.566 180.376 C 45.785 181.445,46.049 182.320,46.152 182.320 C 46.255 182.320,46.415 182.743,46.508 183.260 C 46.601 183.777,47.071 185.950,47.552 188.088 C 49.430 196.426,49.674 197.511,49.795 198.068 C 49.913 198.607,50.025 198.639,51.591 198.569 C 53.492 198.485,53.191 198.939,54.054 194.859 C 54.302 193.687,54.586 192.614,54.686 192.476 C 54.786 192.339,55.278 190.307,55.780 187.962 C 56.281 185.618,56.908 182.740,57.171 181.567 C 57.817 178.693,58.375 176.111,58.578 175.047 C 58.671 174.564,58.825 174.113,58.921 174.044 C 59.016 173.975,59.977 169.799,61.055 164.765 C 62.133 159.730,63.094 155.555,63.190 155.486 C 63.286 155.417,63.490 154.740,63.645 153.981 C 63.799 153.223,64.160 151.530,64.446 150.219 C 64.733 148.909,65.143 146.997,65.356 145.971 C 66.163 142.104,67.429 140.828,70.784 140.507 L 72.226 140.369 72.226 139.150 L 72.226 137.931 65.831 137.931 L 59.436 137.931 59.436 139.185 L 59.436 140.439 61.595 140.439 C 63.706 140.439,63.750 140.451,63.618 141.003 C 63.543 141.313,63.404 142.019,63.307 142.571 C 63.211 143.122,63.036 143.696,62.918 143.845 C 62.733 144.080,62.162 146.596,60.533 154.357 C 59.409 159.715,58.899 161.922,58.707 162.269 C 58.588 162.483,57.894 165.445,57.164 168.852 C 55.718 175.600,55.635 175.794,55.180 173.480 C 55.011 172.618,54.795 171.856,54.701 171.787 C 54.608 171.718,54.274 170.533,53.961 169.154 C 52.868 164.347,52.421 162.356,51.535 158.370 C 51.045 156.163,50.542 154.174,50.418 153.951 C 50.182 153.525,47.398 141.386,47.398 140.784 C 47.398 140.518,47.887 140.439,49.530 140.439 L 51.661 140.439 51.661 139.185 L 51.661 137.931 41.505 137.931 L 31.348 137.931 31.348 139.185 M73.100 138.187 C 73.010 138.332,73.013 138.898,73.105 139.445 L 73.273 140.439 75.508 140.439 L 77.743 140.439 77.743 167.900 L 77.743 195.361 75.503 195.361 C 73.038 195.361,72.887 195.463,73.093 196.991 C 73.149 197.404,73.202 197.828,73.212 197.931 C 73.221 198.034,77.743 198.119,83.260 198.119 L 93.292 198.119 93.292 196.740 L 93.292 195.361 91.036 195.361 L 88.780 195.361 88.716 166.708 L 88.652 138.056 80.957 137.990 C 75.780 137.946,73.210 138.010,73.100 138.187 M218.133 140.732 C 219.907 141.579,220.903 142.841,221.564 145.078 C 222.051 146.727,222.210 189.259,221.734 190.419 C 221.576 190.804,221.378 191.388,221.296 191.717 C 220.986 192.954,218.499 195.453,217.101 195.933 C 215.575 196.457,214.020 196.252,214.078 195.536 C 214.097 195.304,214.031 195.166,213.931 195.227 C 212.900 195.864,210.918 190.127,211.421 187.962 C 211.453 187.824,211.515 181.505,211.559 173.918 C 211.604 166.332,211.685 159.875,211.740 159.570 C 211.794 159.264,211.738 158.981,211.614 158.939 C 211.274 158.826,211.173 155.588,211.448 153.605 C 211.582 152.639,211.682 150.270,211.671 148.339 C 211.628 140.781,213.534 138.537,218.133 140.732 M261.008 140.778 C 261.691 141.210,262.112 141.684,262.210 142.132 C 262.293 142.511,262.465 143.103,262.593 143.448 C 263.463 145.793,264.442 159.387,263.930 162.006 C 263.835 162.489,263.781 163.461,263.808 164.166 L 263.858 165.449 262.399 165.586 C 261.597 165.661,259.304 165.648,257.304 165.557 L 253.668 165.392 253.668 162.633 C 253.668 161.116,253.578 159.808,253.468 159.727 C 253.358 159.646,253.384 157.749,253.525 155.512 C 253.667 153.275,253.712 150.774,253.627 149.954 C 253.509 148.833,253.550 148.464,253.790 148.464 C 254.014 148.464,254.068 148.206,253.970 147.604 C 253.824 146.707,254.502 144.351,255.544 142.134 C 256.570 139.953,258.816 139.395,261.008 140.778 M194.420 158.173 C 194.799 158.231,195.420 158.231,195.799 158.173 C 196.179 158.116,195.868 158.069,195.110 158.069 C 194.351 158.069,194.041 158.116,194.420 158.173 M210.470 199.044 C 210.712 199.107,211.107 199.107,211.348 199.044 C 211.589 198.981,211.392 198.930,210.909 198.930 C 210.426 198.930,210.229 198.981,210.470 199.044 M199.236 219.937 C 199.236 225.110,199.269 227.226,199.310 224.639 C 199.351 222.053,199.351 217.821,199.310 215.235 C 199.269 212.649,199.236 214.765,199.236 219.937 M272.426 213.166 C 272.426 213.925,272.473 214.235,272.531 213.856 C 272.588 213.476,272.588 212.856,272.531 212.476 C 272.473 212.097,272.426 212.408,272.426 213.166 M272.451 220.063 C 272.452 222.132,272.491 222.945,272.538 221.869 C 272.585 220.794,272.585 219.101,272.537 218.108 C 272.490 217.114,272.451 217.994,272.451 220.063 " stroke="none" fill="#ffffff" fill-rule="evenodd"></path><path id="path4" d="M124.054 209.572 C 123.962 209.664,123.887 210.919,123.887 212.361 C 123.887 214.511,123.827 214.933,123.554 214.707 C 123.156 214.376,120.976 214.249,120.199 214.511 C 119.259 214.828,118.404 216.105,118.080 217.676 C 117.912 218.490,117.699 219.110,117.608 219.054 C 117.517 218.997,117.419 219.748,117.391 220.722 C 117.360 221.763,117.435 222.433,117.572 222.348 C 117.701 222.268,117.877 222.652,117.965 223.199 C 118.457 226.275,120.659 227.686,123.268 226.596 C 123.774 226.385,124.138 226.338,124.138 226.484 C 124.138 226.628,124.673 226.702,125.397 226.659 L 126.656 226.583 126.713 217.994 L 126.771 209.404 125.496 209.404 C 124.795 209.404,124.146 209.480,124.054 209.572 M156.338 209.757 C 155.868 210.983,156.331 211.785,157.555 211.863 L 158.746 211.940 158.746 210.672 L 158.746 209.404 157.610 209.404 C 156.865 209.404,156.427 209.526,156.338 209.757 M170.784 210.658 L 170.784 211.912 172.163 211.912 L 173.542 211.912 173.542 210.658 L 173.542 209.404 172.163 209.404 L 170.784 209.404 170.784 210.658 M223.448 210.658 L 223.448 211.912 224.702 211.912 L 225.956 211.912 225.956 210.658 L 225.956 209.404 224.702 209.404 L 223.448 209.404 223.448 210.658 M291.912 212.172 C 291.912 214.730,291.879 214.922,291.473 214.705 C 291.012 214.458,290.056 214.349,288.744 214.393 C 287.849 214.424,286.395 215.721,286.395 216.489 C 286.395 216.747,286.295 216.896,286.174 216.821 C 285.562 216.443,285.143 221.592,285.637 223.426 C 285.788 223.990,286.008 224.451,286.123 224.451 C 286.239 224.451,286.476 224.794,286.649 225.212 C 287.397 227.016,290.222 227.669,291.547 226.344 C 292.115 225.776,292.163 225.766,292.163 226.218 C 292.163 226.636,292.339 226.708,293.354 226.709 L 294.545 226.709 294.476 218.057 L 294.407 209.404 293.160 209.404 L 291.912 209.404 291.912 212.172 M294.783 217.931 C 294.783 222.552,294.817 224.442,294.859 222.132 C 294.900 219.821,294.900 216.041,294.859 213.730 C 294.817 211.420,294.783 213.310,294.783 217.931 M196.865 219.937 L 196.865 229.467 197.994 229.467 L 199.122 229.467 199.122 219.937 L 199.122 210.408 197.994 210.408 L 196.865 210.408 196.865 219.937 M149.969 212.977 C 149.969 214.413,149.965 214.420,149.216 214.420 C 148.506 214.420,148.464 214.476,148.464 215.423 C 148.464 216.371,148.506 216.426,149.216 216.426 L 149.969 216.426 149.969 220.589 C 149.969 225.352,150.181 226.162,151.559 226.660 C 153.080 227.210,155.102 226.893,154.871 226.140 C 154.818 225.970,154.707 225.520,154.624 225.141 C 154.510 224.618,154.325 224.451,153.860 224.451 C 152.902 224.451,152.727 223.756,152.727 219.954 L 152.727 216.426 153.605 216.426 C 154.462 216.426,154.483 216.402,154.483 215.423 C 154.483 214.444,154.462 214.420,153.605 214.420 L 152.727 214.420 152.727 212.934 L 152.727 211.448 151.348 211.491 L 149.969 211.533 149.969 212.977 M176.928 211.660 C 176.652 211.764,176.342 211.800,176.238 211.741 C 176.135 211.681,176.050 212.259,176.050 213.026 C 176.050 214.346,176.017 214.420,175.423 214.420 C 174.859 214.420,174.796 214.520,174.796 215.423 C 174.796 216.350,174.849 216.426,175.486 216.427 L 176.176 216.427 176.176 220.699 C 176.176 223.568,176.267 225.030,176.455 225.150 C 176.609 225.249,176.811 225.574,176.904 225.872 C 177.364 227.345,181.317 227.300,181.317 225.822 C 181.317 225.454,181.208 225.241,181.066 225.329 C 180.928 225.414,180.815 225.239,180.815 224.939 C 180.815 224.530,180.698 224.424,180.349 224.515 C 179.179 224.821,179.060 224.431,179.060 220.301 L 179.060 216.426 179.812 216.426 C 180.571 216.426,180.617 216.357,180.675 215.110 C 180.703 214.491,180.622 214.420,179.883 214.420 C 179.063 214.420,179.060 214.414,179.060 213.181 C 179.060 211.653,178.329 211.132,176.928 211.660 M269.843 212.978 L 269.843 214.420 268.966 214.420 C 268.109 214.420,268.088 214.444,268.088 215.423 C 268.088 216.402,268.109 216.426,268.966 216.426 L 269.843 216.426 269.843 220.534 C 269.843 226.041,270.228 226.964,272.523 226.956 C 274.348 226.949,274.608 226.774,274.608 225.551 L 274.608 224.451 273.632 224.451 C 272.366 224.451,272.351 224.401,272.351 220.023 L 272.351 216.388 273.292 216.469 L 274.232 216.550 274.232 215.548 C 274.232 214.573,274.207 214.543,273.304 214.468 L 272.375 214.391 272.300 212.993 L 272.226 211.595 271.034 211.566 L 269.843 211.536 269.843 212.978 M93.229 214.631 C 92.491 215.013,92.288 215.043,92.288 214.769 C 92.288 214.517,91.939 214.420,91.034 214.420 L 89.781 214.420 89.781 222.821 L 89.781 231.223 91.034 231.223 L 92.288 231.223 92.337 228.401 L 92.387 225.580 92.539 228.213 L 92.692 230.846 92.741 228.682 L 92.790 226.518 93.896 226.754 C 95.568 227.111,96.840 226.674,97.851 225.396 L 98.683 224.345 98.683 220.679 C 98.683 217.546,98.614 216.884,98.204 216.123 C 97.301 214.447,94.946 213.741,93.229 214.631 M104.201 214.351 C 103.925 214.419,103.558 214.589,103.386 214.729 C 103.170 214.904,103.072 214.895,103.072 214.702 C 103.072 214.528,102.545 214.420,101.693 214.420 L 100.313 214.420 100.313 220.564 L 100.313 226.708 101.693 226.708 L 103.072 226.708 103.072 222.356 C 103.072 217.367,103.326 216.677,105.160 216.677 C 105.969 216.677,106.027 216.619,106.180 215.659 C 106.416 214.183,106.001 213.908,104.201 214.351 M110.219 214.388 C 107.338 215.137,106.103 218.909,107.183 223.663 C 107.981 227.176,113.313 228.037,115.426 224.995 L 116.238 223.824 116.238 220.420 C 116.238 215.347,114.240 213.345,110.219 214.388 M141.239 214.796 C 138.502 216.326,138.253 223.099,140.830 225.911 C 141.910 227.090,145.259 227.203,146.317 226.096 C 148.485 223.828,148.597 222.370,146.604 222.372 C 145.504 222.373,145.361 222.437,145.281 222.960 C 144.991 224.863,142.661 224.959,141.953 223.098 C 141.519 221.955,141.630 218.435,142.132 217.429 C 142.967 215.758,145.090 216.228,145.253 218.120 C 145.329 219.005,145.334 219.009,146.546 219.007 C 147.990 219.006,148.226 218.729,147.926 217.394 C 147.322 214.706,143.828 213.349,141.239 214.796 M210.282 214.350 C 210.006 214.417,209.593 214.638,209.364 214.840 C 208.997 215.166,208.921 215.161,208.718 214.797 C 208.551 214.499,208.215 214.407,207.504 214.465 L 206.520 214.545 206.453 220.627 L 206.386 226.708 207.707 226.708 L 209.028 226.708 209.028 222.220 C 209.028 217.074,209.163 216.677,210.915 216.677 C 211.855 216.677,212.145 216.165,212.160 214.483 C 212.163 214.171,211.276 214.108,210.282 214.350 M216.154 214.396 C 211.512 215.895,211.298 224.624,215.854 226.608 C 217.481 227.316,220.729 226.695,221.238 225.578 C 221.820 224.299,220.810 223.121,219.829 223.936 C 218.270 225.229,215.674 224.051,215.674 222.050 L 215.674 221.191 218.718 221.191 L 221.762 221.191 221.634 218.997 C 221.467 216.116,220.794 214.883,219.185 214.507 C 218.129 214.261,216.731 214.210,216.154 214.396 M231.850 214.568 C 231.436 214.792,230.956 215.154,230.784 215.373 C 230.512 215.717,230.470 215.680,230.470 215.095 C 230.470 214.463,230.399 214.420,229.350 214.420 L 228.230 214.420 228.159 220.564 L 228.088 226.709 229.404 226.709 L 230.721 226.708 230.721 222.178 C 230.721 217.885,230.919 216.460,231.469 216.800 C 231.590 216.875,231.760 216.821,231.847 216.681 C 232.102 216.269,233.117 216.389,233.566 216.885 C 233.921 217.277,233.981 218.021,233.981 222.026 L 233.981 226.708 235.512 226.708 L 237.042 226.708 236.947 221.630 C 236.884 218.258,236.749 216.368,236.546 216.005 C 235.729 214.547,233.275 213.797,231.850 214.568 M250.909 214.546 C 249.741 214.960,248.814 215.929,248.610 216.952 C 248.528 217.359,248.353 217.603,248.206 217.512 C 248.037 217.407,248.002 217.626,248.105 218.143 C 248.196 218.598,248.159 218.934,248.019 218.934 C 247.883 218.934,247.774 219.722,247.774 220.704 C 247.774 221.678,247.871 222.415,247.989 222.342 C 248.107 222.269,248.150 222.488,248.085 222.829 C 248.020 223.170,248.080 223.448,248.219 223.448 C 248.358 223.448,248.544 223.733,248.631 224.081 C 249.353 226.958,255.604 228.046,256.431 225.439 C 256.869 224.061,255.846 223.129,254.796 223.950 C 253.189 225.207,250.784 224.068,250.784 222.050 L 250.784 221.191 253.730 221.162 C 255.351 221.145,256.762 221.145,256.865 221.162 C 256.969 221.178,257.053 220.338,257.053 219.296 C 257.053 218.096,256.961 217.457,256.803 217.555 C 256.662 217.642,256.552 217.446,256.552 217.108 C 256.552 215.018,253.497 213.631,250.909 214.546 M262.696 214.382 C 261.920 214.635,261.424 215.000,261.114 215.549 C 260.858 216.002,260.830 215.971,260.823 215.235 C 260.815 214.431,260.799 214.420,259.624 214.420 L 258.433 214.420 258.433 220.575 L 258.433 226.730 259.812 226.656 L 261.191 226.583 261.317 221.891 C 261.452 216.815,261.562 216.455,262.979 216.434 C 264.055 216.418,264.193 216.981,264.326 221.919 L 264.451 226.583 265.831 226.583 L 267.210 226.583 267.210 222.069 C 267.210 217.136,267.069 216.022,266.340 215.181 C 265.656 214.392,263.870 214.001,262.696 214.382 M278.905 214.350 C 274.764 215.135,273.994 224.048,277.872 226.319 C 279.607 227.335,283.594 226.773,284.013 225.453 C 284.351 224.387,283.589 223.408,282.759 223.843 C 280.514 225.020,278.727 224.348,278.442 222.219 L 278.304 221.191 281.373 221.191 L 284.442 221.191 284.321 219.248 C 284.064 215.104,282.480 213.672,278.905 214.350 M128.449 219.134 C 128.546 223.329,128.618 223.971,129.102 224.965 C 130.041 226.891,132.274 227.552,134.077 226.437 C 134.794 225.994,134.922 225.975,134.922 226.312 C 134.922 226.621,135.199 226.708,136.176 226.708 L 137.429 226.708 137.429 220.564 L 137.429 214.420 136.050 214.420 L 134.671 214.420 134.671 218.957 C 134.671 223.968,134.523 224.422,132.883 224.443 C 131.542 224.460,131.455 224.113,131.430 218.621 L 131.411 214.420 129.875 214.420 L 128.340 214.420 128.449 219.134 M156.405 214.587 C 156.313 214.679,156.238 217.444,156.238 220.731 L 156.238 226.708 157.555 226.709 L 158.871 226.709 158.800 220.564 L 158.729 214.420 157.651 214.420 C 157.058 214.420,156.497 214.495,156.405 214.587 M160.398 214.635 C 160.325 214.753,160.490 215.628,160.763 216.578 C 161.037 217.529,161.310 218.533,161.371 218.809 C 161.431 219.085,161.965 220.975,162.558 223.009 L 163.635 226.708 164.953 226.708 C 166.035 226.708,166.272 226.630,166.282 226.270 C 166.301 225.570,168.409 218.398,168.553 218.542 C 168.764 218.753,169.602 215.222,169.441 214.802 C 169.338 214.532,168.935 214.420,168.063 214.420 L 166.831 214.420 166.583 215.486 C 166.447 216.072,166.067 217.765,165.739 219.248 C 165.167 221.826,164.765 222.674,164.765 221.302 C 164.765 220.949,164.668 220.720,164.550 220.793 C 164.432 220.866,164.392 220.630,164.461 220.269 C 164.539 219.861,164.490 219.672,164.332 219.769 C 164.177 219.865,163.847 218.851,163.487 217.173 L 162.897 214.420 161.714 214.420 C 161.064 214.420,160.471 214.517,160.398 214.635 M170.784 220.564 L 170.784 226.733 172.174 226.658 L 173.564 226.583 173.564 220.564 L 173.564 214.545 172.174 214.470 L 170.784 214.395 170.784 220.564 M181.689 215.599 C 181.883 216.261,182.290 217.705,182.593 218.809 C 183.668 222.726,183.773 223.089,184.279 224.624 C 185.011 226.846,184.342 228.966,182.908 228.966 C 182.466 228.966,182.319 229.106,182.316 229.530 C 182.314 229.840,182.248 230.337,182.168 230.633 C 181.978 231.342,183.103 231.619,184.567 231.225 C 186.097 230.813,186.551 229.954,188.079 224.577 C 188.511 223.060,188.897 221.705,188.937 221.567 C 188.977 221.429,189.097 220.894,189.204 220.378 C 189.310 219.862,189.488 219.496,189.599 219.565 C 189.711 219.634,189.912 219.210,190.048 218.623 C 190.183 218.035,190.450 217.047,190.642 216.426 C 191.197 214.627,191.156 214.555,189.527 214.470 C 188.506 214.417,188.052 214.491,187.982 214.721 C 187.927 214.900,187.496 216.663,187.025 218.638 L 186.168 222.229 185.834 220.455 C 185.650 219.479,185.433 218.748,185.351 218.831 C 185.270 218.913,184.974 217.983,184.693 216.763 L 184.182 214.545 182.759 214.471 L 181.336 214.396 181.689 215.599 M223.448 220.551 L 223.448 226.708 224.707 226.708 L 225.965 226.708 225.898 220.627 L 225.831 214.545 224.639 214.469 L 223.448 214.393 223.448 220.551 M238.083 214.801 C 238.002 215.010,238.056 215.490,238.203 215.867 C 238.349 216.243,238.713 217.483,239.011 218.621 C 239.309 219.759,239.637 220.690,239.739 220.690 C 239.842 220.690,240.121 221.451,240.360 222.382 C 240.599 223.313,240.897 224.357,241.022 224.702 C 241.147 225.047,241.289 225.611,241.338 225.956 C 241.482 226.972,243.756 227.030,244.191 226.029 C 244.599 225.087,246.270 219.183,246.270 218.681 C 246.270 218.462,246.405 218.147,246.571 217.981 C 246.736 217.816,246.804 217.680,246.720 217.680 C 246.637 217.680,246.728 217.154,246.921 216.512 C 247.510 214.555,247.453 214.420,246.031 214.420 L 244.790 214.420 244.495 215.920 C 244.333 216.745,244.120 217.371,244.023 217.310 C 243.925 217.250,243.840 217.337,243.833 217.503 C 243.826 217.670,243.677 218.370,243.502 219.060 C 243.327 219.749,243.081 220.748,242.955 221.279 C 242.695 222.376,242.606 222.383,242.434 221.317 C 242.367 220.903,242.133 219.881,241.914 219.047 C 241.496 217.448,241.440 217.195,241.131 215.486 L 240.939 214.420 239.584 214.420 C 238.604 214.420,238.188 214.525,238.083 214.801 M95.292 217.047 C 96.085 217.891,96.358 222.126,95.701 223.397 C 95.067 224.622,93.267 224.806,92.910 223.683 C 92.824 223.412,92.649 223.255,92.521 223.334 C 92.383 223.419,92.288 222.346,92.288 220.704 C 92.288 219.023,92.387 217.931,92.539 217.931 C 92.677 217.931,92.790 217.799,92.790 217.637 C 92.790 216.485,94.406 216.104,95.292 217.047 M112.999 217.241 C 114.687 219.122,113.713 224.451,111.683 224.451 C 110.240 224.451,109.758 223.209,109.881 219.800 C 110.003 216.444,111.317 215.366,112.999 217.241 M123.307 216.972 C 124.183 217.794,124.201 223.451,123.330 224.061 C 121.828 225.113,120.588 224.207,120.425 221.940 C 120.118 217.698,121.515 215.289,123.307 216.972 M218.451 216.947 C 218.738 217.233,219.035 217.854,219.111 218.326 L 219.251 219.185 217.462 219.185 C 215.547 219.185,215.436 219.091,215.904 217.861 C 216.448 216.430,217.542 216.038,218.451 216.947 M253.640 216.897 C 253.874 217.156,254.132 217.776,254.213 218.276 L 254.360 219.185 252.572 219.185 C 250.646 219.185,250.641 219.181,251.071 217.906 C 251.600 216.334,252.729 215.891,253.640 216.897 M280.975 216.897 C 281.209 217.156,281.467 217.776,281.548 218.276 L 281.696 219.185 279.919 219.185 L 278.141 219.185 278.513 218.119 C 279.091 216.462,280.120 215.952,280.975 216.897 M291.195 216.905 C 292.071 217.614,292.256 223.105,291.431 223.929 C 290.322 225.039,288.823 224.439,288.485 222.751 C 287.666 218.657,289.219 215.307,291.195 216.905 M92.631 220.564 C 92.631 221.944,92.674 222.476,92.724 221.747 C 92.775 221.018,92.775 219.890,92.723 219.239 C 92.672 218.589,92.630 219.185,92.631 220.564 M109.521 221.129 C 109.464 221.508,109.417 221.197,109.417 220.439 C 109.417 219.680,109.464 219.370,109.521 219.749 C 109.579 220.129,109.579 220.749,109.521 221.129 M296.677 225.329 L 296.677 226.708 298.182 226.708 L 299.687 226.708 299.687 225.329 L 299.687 223.950 298.182 223.950 L 296.677 223.950 296.677 225.329 " stroke="none" fill="#ff4a00" fill-rule="evenodd"></path></g></svg>